<svg width="24" height="24" viewBox="0 0 24 24" fill="none" xmlns="http://www.w3.org/2000/svg">
<path fill-rule="evenodd" clip-rule="evenodd" d="M4 3C4.26522 3 4.51957 3.10536 4.70711 3.29289C4.89464 3.48043 5 3.73478 5 4V20C5 20.2652 4.89464 20.5196 4.70711 20.7071C4.51957 20.8946 4.26522 21 4 21C3.73478 21 3.48043 20.8946 3.29289 20.7071C3.10536 20.5196 3 20.2652 3 20V4C3 3.73478 3.10536 3.48043 3.29289 3.29289C3.48043 3.10536 3.73478 3 4 3ZM10 15C9.73478 15 9.48043 15.1054 9.29289 15.2929C9.10536 15.4804 9 15.7348 9 16C9 16.2652 9.10536 16.5196 9.29289 16.7071C9.48043 16.8946 9.73478 17 10 17H12C12.2652 17 12.5196 16.8946 12.7071 16.7071C12.8946 16.5196 13 16.2652 13 16C13 15.7348 12.8946 15.4804 12.7071 15.2929C12.5196 15.1054 12.2652 15 12 15H10ZM7 16C7 15.2044 7.31607 14.4413 7.87868 13.8787C8.44129 13.3161 9.20435 13 10 13H12C12.7956 13 13.5587 13.3161 14.1213 13.8787C14.6839 14.4413 15 15.2044 15 16C15 16.7956 14.6839 17.5587 14.1213 18.1213C13.5587 18.6839 12.7956 19 12 19H10C9.20435 19 8.44129 18.6839 7.87868 18.1213C7.31607 17.5587 7 16.7956 7 16ZM9 8C9 7.73478 9.10536 7.48043 9.29289 7.29289C9.48043 7.10536 9.73478 7 10 7H18C18.2652 7 18.5196 7.10536 18.7071 7.29289C18.8946 7.48043 19 7.73478 19 8C19 8.26522 18.8946 8.51957 18.7071 8.70711C18.5196 8.89464 18.2652 9 18 9H10C9.73478 9 9.48043 8.89464 9.29289 8.70711C9.10536 8.51957 9 8.26522 9 8ZM10 5C9.20435 5 8.44129 5.31607 7.87868 5.87868C7.31607 6.44129 7 7.20435 7 8C7 8.79565 7.31607 9.55871 7.87868 10.1213C8.44129 10.6839 9.20435 11 10 11H18C18.7956 11 19.5587 10.6839 20.1213 10.1213C20.6839 9.55871 21 8.79565 21 8C21 7.20435 20.6839 6.44129 20.1213 5.87868C19.5587 5.31607 18.7956 5 18 5H10Z" fill="#7E889A"/>
</svg>
