<svg width="16" height="18" viewBox="0 0 16 18" fill="none" xmlns="http://www.w3.org/2000/svg">
<path fill-rule="evenodd" clip-rule="evenodd" d="M5.293 0.293C5.48049 0.105451 5.73481 5.66374e-05 6 0H10C10.7956 0 11.5587 0.316071 12.1213 0.87868C12.6839 1.44129 13 2.20435 13 3V12C13 12.7956 12.6839 13.5587 12.1213 14.1213C11.5587 14.6839 10.7956 15 10 15H3C2.20435 15 1.44129 14.6839 0.87868 14.1213C0.316071 13.5587 0 12.7956 0 12V6C5.66374e-05 5.73481 0.105451 5.48049 0.293 5.293L5.293 0.293ZM10 2H7V6C7 6.26522 6.89464 6.51957 6.70711 6.70711C6.51957 6.89464 6.26522 7 6 7H2V12C2 12.2652 2.10536 12.5196 2.29289 12.7071C2.48043 12.8946 2.73478 13 3 13H10C10.2652 13 10.5196 12.8946 10.7071 12.7071C10.8946 12.5196 11 12.2652 11 12V3C11 2.73478 10.8946 2.48043 10.7071 2.29289C10.5196 2.10536 10.2652 2 10 2ZM3.414 5H5V3.414L3.414 5ZM15 2C15.2652 2 15.5196 2.10536 15.7071 2.29289C15.8946 2.48043 16 2.73478 16 3V15C16 15.7956 15.6839 16.5587 15.1213 17.1213C14.5587 17.6839 13.7956 18 13 18H3C2.73478 18 2.48043 17.8946 2.29289 17.7071C2.10536 17.5196 2 17.2652 2 17C2 16.7348 2.10536 16.4804 2.29289 16.2929C2.48043 16.1054 2.73478 16 3 16H13C13.2652 16 13.5196 15.8946 13.7071 15.7071C13.8946 15.5196 14 15.2652 14 15V3C14 2.73478 14.1054 2.48043 14.2929 2.29289C14.4804 2.10536 14.7348 2 15 2Z" fill="#7E889A"/>
</svg>
