<svg width="24" height="24" viewBox="0 0 24 24" fill="none" xmlns="http://www.w3.org/2000/svg">
<path fill-rule="evenodd" clip-rule="evenodd" d="M9 1C9 0.734784 8.89464 0.48043 8.70711 0.292893C8.51957 0.105357 8.26522 0 8 0C7.73478 0 7.48043 0.105357 7.29289 0.292893C7.10536 0.48043 7 0.734784 7 1V1.5C7 1.76522 7.10536 2.01957 7.29289 2.20711C7.48043 2.39464 7.73478 2.5 8 2.5C8.26522 2.5 8.51957 2.39464 8.70711 2.20711C8.89464 2.01957 9 1.76522 9 1.5V1ZM3.707 2.293C3.5184 2.11084 3.2658 2.01005 3.0036 2.01233C2.7414 2.0146 2.49059 2.11977 2.30518 2.30518C2.11977 2.49059 2.0146 2.7414 2.01233 3.0036C2.01005 3.2658 2.11084 3.5184 2.293 3.707L3.293 4.707C3.4816 4.88916 3.7342 4.98995 3.9964 4.98767C4.2586 4.9854 4.50941 4.88023 4.69482 4.69482C4.88023 4.50941 4.9854 4.2586 4.98767 3.9964C4.98995 3.7342 4.88916 3.4816 4.707 3.293L3.707 2.293ZM13.707 3.707C13.8892 3.5184 13.99 3.2658 13.9877 3.0036C13.9854 2.7414 13.8802 2.49059 13.6948 2.30518C13.5094 2.11977 13.2586 2.0146 12.9964 2.01233C12.7342 2.01005 12.4816 2.11084 12.293 2.293L11.293 3.293C11.1108 3.4816 11.01 3.7342 11.0123 3.9964C11.0146 4.2586 11.1198 4.50941 11.3052 4.69482C11.4906 4.88023 11.7414 4.9854 12.0036 4.98767C12.2658 4.98995 12.5184 4.88916 12.707 4.707L13.707 3.707ZM1 7C0.734784 7 0.48043 7.10536 0.292893 7.29289C0.105357 7.48043 0 7.73478 0 8C0 8.26522 0.105357 8.51957 0.292893 8.70711C0.48043 8.89464 0.734784 9 1 9H1.5C1.76522 9 2.01957 8.89464 2.20711 8.70711C2.39464 8.51957 2.5 8.26522 2.5 8C2.5 7.73478 2.39464 7.48043 2.20711 7.29289C2.01957 7.10536 1.76522 7 1.5 7H1ZM15 7C14.7348 7 14.4804 7.10536 14.2929 7.29289C14.1054 7.48043 14 7.73478 14 8C14 8.26522 14.1054 8.51957 14.2929 8.70711C14.4804 8.89464 14.7348 9 15 9H15.5C15.7652 9 16.0196 8.89464 16.2071 8.70711C16.3946 8.51957 16.5 8.26522 16.5 8C16.5 7.73478 16.3946 7.48043 16.2071 7.29289C16.0196 7.10536 15.7652 7 15.5 7H15ZM4.707 12.707C4.80251 12.6148 4.87869 12.5044 4.9311 12.3824C4.98351 12.2604 5.0111 12.1292 5.01225 11.9964C5.0134 11.8636 4.9881 11.7319 4.93782 11.609C4.88754 11.4861 4.81329 11.3745 4.7194 11.2806C4.6255 11.1867 4.51385 11.1125 4.39095 11.0622C4.26806 11.0119 4.13638 10.9866 4.0036 10.9877C3.87082 10.9889 3.7396 11.0165 3.6176 11.0689C3.49559 11.1213 3.38525 11.1975 3.293 11.293L2.293 12.293C2.19749 12.3852 2.12131 12.4956 2.0689 12.6176C2.01649 12.7396 1.9889 12.8708 1.98775 13.0036C1.9866 13.1364 2.0119 13.2681 2.06218 13.391C2.11246 13.5139 2.18671 13.6255 2.28061 13.7194C2.3745 13.8133 2.48615 13.8875 2.60905 13.9378C2.73194 13.9881 2.86362 14.0134 2.9964 14.0123C3.12918 14.0111 3.2604 13.9835 3.3824 13.9311C3.50441 13.8787 3.61475 13.8025 3.707 13.707L4.707 12.707ZM9 15C9 14.7348 8.89464 14.4804 8.70711 14.2929C8.51957 14.1054 8.26522 14 8 14C7.73478 14 7.48043 14.1054 7.29289 14.2929C7.10536 14.4804 7 14.7348 7 15V15.5C7 15.7652 7.10536 16.0196 7.29289 16.2071C7.48043 16.3946 7.73478 16.5 8 16.5C8.26522 16.5 8.51957 16.3946 8.70711 16.2071C8.89464 16.0196 9 15.7652 9 15.5V15ZM9.414 5C9.03894 4.62506 8.53033 4.41443 8 4.41443C7.46967 4.41443 6.96106 4.62506 6.586 5L5 6.586C4.62506 6.96106 4.41443 7.46967 4.41443 8C4.41443 8.53033 4.62506 9.03894 5 9.414L7.293 11.707L18.586 23C18.9611 23.3749 19.4697 23.5856 20 23.5856C20.5303 23.5856 21.0389 23.3749 21.414 23L23 21.414C23.3749 21.0389 23.5856 20.5303 23.5856 20C23.5856 19.4697 23.3749 18.9611 23 18.586L11.707 7.293L9.414 5ZM6.414 8L8 6.414L9.586 8L8 9.586L6.414 8ZM9.414 11L11 9.414L21.586 20L20 21.586L9.414 11Z" fill="#7E889A"/>
</svg>
