<svg width="22" height="21" viewBox="0 0 22 21" fill="none" xmlns="http://www.w3.org/2000/svg">
<path fill-rule="evenodd" clip-rule="evenodd" d="M0.87868 0.87868C0.31607 1.44129 0 2.20435 0 3V14C0 14.7956 0.31607 15.5587 0.87868 16.1213C1.44129 16.6839 2.20435 17 3 17H6V19H5C4.73478 19 4.48043 19.1054 4.29289 19.2929C4.10536 19.4804 4 19.7348 4 20C4 20.2652 4.10536 20.5196 4.29289 20.7071C4.48043 20.8946 4.73478 21 5 21H17C17.2652 21 17.5196 20.8946 17.7071 20.7071C17.8946 20.5196 18 20.2652 18 20C18 19.7348 17.8946 19.4804 17.7071 19.2929C17.5196 19.1054 17.2652 19 17 19H16V17H19C19.7956 17 20.5587 16.6839 21.1213 16.1213C21.6839 15.5587 22 14.7956 22 14V3C22 2.20435 21.6839 1.44129 21.1213 0.87868C20.5587 0.316071 19.7956 0 19 0H3C2.20435 0 1.44129 0.316071 0.87868 0.87868ZM14 17V19H8V17H14ZM3 15H19C19.2652 15 19.5196 14.8946 19.7071 14.7071C19.8946 14.5196 20 14.2652 20 14V3C20 2.73478 19.8946 2.48043 19.7071 2.29289C19.5196 2.10536 19.2652 2 19 2H3C2.73478 2 2.48043 2.10536 2.29289 2.29289C2.10536 2.48043 2 2.73478 2 3V14C2 14.2652 2.10536 14.5196 2.29289 14.7071C2.48043 14.8946 2.73478 15 3 15Z" fill="#16181D"/>
<path d="M11 13.5C11.5523 13.5 12 13.0523 12 12.5C12 11.9477 11.5523 11.5 11 11.5C10.4477 11.5 10 11.9477 10 12.5C10 13.0523 10.4477 13.5 11 13.5Z" fill="#16181D"/>
</svg>
