<svg width="19" height="19" viewBox="0 0 19 19" fill="none" xmlns="http://www.w3.org/2000/svg">
<path fill-rule="evenodd" clip-rule="evenodd" d="M12.879 1.707C13.4416 1.14459 14.2045 0.828644 15 0.828644C15.7955 0.828644 16.5584 1.14459 17.121 1.707L17.293 1.879C17.8554 2.44159 18.1714 3.20451 18.1714 4C18.1714 4.7955 17.8554 5.55842 17.293 6.121L15.556 7.86L5.707 17.708C5.57899 17.8361 5.41862 17.927 5.243 17.971L1.243 18.971C1.07541 19.013 0.899812 19.0108 0.73331 18.9647C0.566808 18.9187 0.415084 18.8302 0.292924 18.7081C0.170764 18.5859 0.0823353 18.4342 0.0362566 18.2677C-0.00982216 18.1012 -0.0119793 17.9256 0.0299954 17.758L1.03 13.758C1.07404 13.5824 1.16494 13.422 1.293 13.294L11.199 3.388L12.879 1.708V1.707ZM15.707 3.121C15.5195 2.93353 15.2652 2.82822 15 2.82822C14.7348 2.82822 14.4805 2.93353 14.293 3.121L13.307 4.107L14.862 5.724L15.879 4.707C16.0665 4.51948 16.1718 4.26517 16.1718 4C16.1718 3.73484 16.0665 3.48053 15.879 3.293L15.707 3.121ZM13.447 7.138L11.892 5.522L2.903 14.512L2.374 16.626L4.489 16.097L13.448 7.138H13.447Z" fill="#505662"/>
</svg>
