<svg width="22" height="22" viewBox="0 0 22 22" fill="none" xmlns="http://www.w3.org/2000/svg">
<path fill-rule="evenodd" clip-rule="evenodd" d="M12.4139 2.82794C12.0389 2.453 11.5303 2.24237 10.9999 2.24237C10.4696 2.24237 9.961 2.453 9.58594 2.82794L2.82794 9.58594C2.453 9.961 2.24237 10.4696 2.24237 10.9999C2.24237 11.5303 2.453 12.0389 2.82794 12.4139L9.58594 19.1719C9.961 19.5469 10.4696 19.7575 10.9999 19.7575C11.5303 19.7575 12.0389 19.5469 12.4139 19.1719L19.1719 12.4139C19.5469 12.0389 19.7575 11.5303 19.7575 10.9999C19.7575 10.4696 19.5469 9.961 19.1719 9.58594L12.4139 2.82794ZM8.17194 1.41394C8.92205 0.664059 9.93929 0.242798 10.9999 0.242798C12.0606 0.242798 13.0778 0.664059 13.8279 1.41394L20.5859 8.17194C21.3358 8.92205 21.7571 9.93929 21.7571 10.9999C21.7571 12.0606 21.3358 13.0778 20.5859 13.8279L13.8279 20.5859C13.0778 21.3358 12.0606 21.7571 10.9999 21.7571C9.93929 21.7571 8.92205 21.3358 8.17194 20.5859L1.41394 13.8279C0.664059 13.0778 0.242798 12.0606 0.242798 10.9999C0.242798 9.93929 0.664059 8.92205 1.41394 8.17194L8.17194 1.41394ZM12.2499 14.7499C12.2499 15.0815 12.1182 15.3994 11.8838 15.6338C11.6494 15.8682 11.3315 15.9999 10.9999 15.9999C10.6684 15.9999 10.3505 15.8682 10.1161 15.6338C9.88164 15.3994 9.74994 15.0815 9.74994 14.7499C9.74994 14.4184 9.88164 14.1005 10.1161 13.8661C10.3505 13.6316 10.6684 13.4999 10.9999 13.4999C11.3315 13.4999 11.6494 13.6316 11.8838 13.8661C12.1182 14.1005 12.2499 14.4184 12.2499 14.7499ZM11.9999 5.99994C11.9999 5.73473 11.8946 5.48037 11.7071 5.29284C11.5195 5.1053 11.2652 4.99994 10.9999 4.99994C10.7347 4.99994 10.4804 5.1053 10.2928 5.29284C10.1053 5.48037 9.99994 5.73473 9.99994 5.99994V10.9999C9.99994 11.2652 10.1053 11.5195 10.2928 11.7071C10.4804 11.8946 10.7347 11.9999 10.9999 11.9999C11.2652 11.9999 11.5195 11.8946 11.7071 11.7071C11.8946 11.5195 11.9999 11.2652 11.9999 10.9999V5.99994Z" fill="#E25336"/>
</svg>
