<svg width="16" height="16" viewBox="0 0 16 16" fill="none" xmlns="http://www.w3.org/2000/svg">
<path fill-rule="evenodd" clip-rule="evenodd" d="M2.00008 8.00002C2.00008 7.21209 2.15528 6.43187 2.4568 5.70392C2.75833 4.97597 3.20029 4.31453 3.75744 3.75738C4.31459 3.20023 4.97603 2.75827 5.70398 2.45674C6.43193 2.15521 7.21215 2.00002 8.00008 2.00002C8.78801 2.00002 9.56823 2.15521 10.2962 2.45674C11.0241 2.75827 11.6856 3.20023 12.2427 3.75738C12.7999 4.31453 13.2418 4.97597 13.5434 5.70392C13.8449 6.43187 14.0001 7.21209 14.0001 8.00002C14.0001 9.59132 13.3679 11.1174 12.2427 12.2427C11.1175 13.3679 9.59138 14 8.00008 14C6.40878 14 4.88266 13.3679 3.75744 12.2427C2.63222 11.1174 2.00008 9.59132 2.00008 8.00002ZM8.00008 0.666687C3.95008 0.666687 0.666748 3.95002 0.666748 8.00002C0.666748 12.05 3.95008 15.3334 8.00008 15.3334C12.0501 15.3334 15.3334 12.05 15.3334 8.00002C15.3334 3.95002 12.0501 0.666687 8.00008 0.666687ZM8.66675 4.66669C8.66675 4.48988 8.59651 4.32031 8.47149 4.19528C8.34646 4.07026 8.17689 4.00002 8.00008 4.00002C7.82327 4.00002 7.6537 4.07026 7.52868 4.19528C7.40365 4.32031 7.33341 4.48988 7.33341 4.66669V7.33335H4.66675C4.48994 7.33335 4.32037 7.40359 4.19534 7.52862C4.07032 7.65364 4.00008 7.82321 4.00008 8.00002C4.00008 8.17683 4.07032 8.3464 4.19534 8.47142C4.32037 8.59645 4.48994 8.66669 4.66675 8.66669H7.33341V11.3334C7.33341 11.5102 7.40365 11.6797 7.52868 11.8048C7.6537 11.9298 7.82327 12 8.00008 12C8.17689 12 8.34646 11.9298 8.47149 11.8048C8.59651 11.6797 8.66675 11.5102 8.66675 11.3334V8.66669H11.3334C11.5102 8.66669 11.6798 8.59645 11.8048 8.47142C11.9298 8.3464 12.0001 8.17683 12.0001 8.00002C12.0001 7.82321 11.9298 7.65364 11.8048 7.52862C11.6798 7.40359 11.5102 7.33335 11.3334 7.33335H8.66675V4.66669Z" fill="#4898A8"/>
</svg>
