<svg width="22" height="18" viewBox="0 0 22 18" fill="none" xmlns="http://www.w3.org/2000/svg">
<path fill-rule="evenodd" clip-rule="evenodd" d="M4 0C4.26522 0 4.51957 0.105357 4.70711 0.292893C4.89465 0.48043 5 0.734784 5 1V4.05C5.56515 4.16476 6.07324 4.47136 6.43819 4.91787C6.80314 5.36438 7.00251 5.92332 7.00251 6.5C7.00251 7.07668 6.80314 7.63562 6.43819 8.08213C6.07324 8.52864 5.56515 8.83524 5 8.95V17C5 17.2652 4.89465 17.5196 4.70711 17.7071C4.51957 17.8946 4.26522 18 4 18C3.73479 18 3.48043 17.8946 3.2929 17.7071C3.10536 17.5196 3 17.2652 3 17V8.95C2.43486 8.83524 1.92677 8.52864 1.56182 8.08213C1.19686 7.63562 0.997498 7.07668 0.997498 6.5C0.997498 5.92332 1.19686 5.36438 1.56182 4.91787C1.92677 4.47136 2.43486 4.16476 3 4.05V1C3 0.734784 3.10536 0.48043 3.2929 0.292893C3.48043 0.105357 3.73479 0 4 0ZM3.5 6C3.3674 6 3.24022 6.05268 3.14645 6.14645C3.05268 6.24021 3 6.36739 3 6.5C3 6.63261 3.05268 6.75979 3.14645 6.85355C3.24022 6.94732 3.3674 7 3.5 7H4.5C4.63261 7 4.75979 6.94732 4.85356 6.85355C4.94733 6.75979 5 6.63261 5 6.5C5 6.36739 4.94733 6.24021 4.85356 6.14645C4.75979 6.05268 4.63261 6 4.5 6H3.5ZM18 0C18.2652 0 18.5196 0.105357 18.7071 0.292893C18.8946 0.48043 19 0.734784 19 1V4.05C19.5651 4.16476 20.0732 4.47136 20.4382 4.91787C20.8031 5.36438 21.0025 5.92332 21.0025 6.5C21.0025 7.07668 20.8031 7.63562 20.4382 8.08213C20.0732 8.52864 19.5651 8.83524 19 8.95V17C19 17.2652 18.8946 17.5196 18.7071 17.7071C18.5196 17.8946 18.2652 18 18 18C17.7348 18 17.4804 17.8946 17.2929 17.7071C17.1054 17.5196 17 17.2652 17 17V8.95C16.4349 8.83524 15.9268 8.52864 15.5618 8.08213C15.1969 7.63562 14.9975 7.07668 14.9975 6.5C14.9975 5.92332 15.1969 5.36438 15.5618 4.91787C15.9268 4.47136 16.4349 4.16476 17 4.05V1C17 0.734784 17.1054 0.48043 17.2929 0.292893C17.4804 0.105357 17.7348 0 18 0ZM17.5 6C17.3674 6 17.2402 6.05268 17.1465 6.14645C17.0527 6.24021 17 6.36739 17 6.5C17 6.63261 17.0527 6.75979 17.1465 6.85355C17.2402 6.94732 17.3674 7 17.5 7H18.5C18.6326 7 18.7598 6.94732 18.8536 6.85355C18.9473 6.75979 19 6.63261 19 6.5C19 6.36739 18.9473 6.24021 18.8536 6.14645C18.7598 6.05268 18.6326 6 18.5 6H17.5ZM12 1C12 0.734784 11.8946 0.48043 11.7071 0.292893C11.5196 0.105357 11.2652 0 11 0C10.7348 0 10.4804 0.105357 10.2929 0.292893C10.1054 0.48043 10 0.734784 10 1V9.05C9.43486 9.16476 8.92677 9.47136 8.56182 9.91787C8.19686 10.3644 7.9975 10.9233 7.9975 11.5C7.9975 12.0767 8.19686 12.6356 8.56182 13.0821C8.92677 13.5286 9.43486 13.8352 10 13.95V17C10 17.2652 10.1054 17.5196 10.2929 17.7071C10.4804 17.8946 10.7348 18 11 18C11.2652 18 11.5196 17.8946 11.7071 17.7071C11.8946 17.5196 12 17.2652 12 17V13.95C12.5651 13.8352 13.0732 13.5286 13.4382 13.0821C13.8031 12.6356 14.0025 12.0767 14.0025 11.5C14.0025 10.9233 13.8031 10.3644 13.4382 9.91787C13.0732 9.47136 12.5651 9.16476 12 9.05V1ZM10 11.5C10 11.3674 10.0527 11.2402 10.1465 11.1464C10.2402 11.0527 10.3674 11 10.5 11H11.5C11.6326 11 11.7598 11.0527 11.8536 11.1464C11.9473 11.2402 12 11.3674 12 11.5C12 11.6326 11.9473 11.7598 11.8536 11.8536C11.7598 11.9473 11.6326 12 11.5 12H10.5C10.3674 12 10.2402 11.9473 10.1465 11.8536C10.0527 11.7598 10 11.6326 10 11.5Z" fill="#7E889A"/>
</svg>
