<svg width="16" height="16" viewBox="0 0 16 16" fill="none" xmlns="http://www.w3.org/2000/svg">
<path fill-rule="evenodd" clip-rule="evenodd" d="M1.99996 8C1.99996 7.21207 2.15515 6.43185 2.45668 5.7039C2.75821 4.97595 3.20017 4.31451 3.75732 3.75736C4.31447 3.20021 4.9759 2.75825 5.70386 2.45672C6.43181 2.1552 7.21203 2 7.99996 2C8.78789 2 9.56811 2.1552 10.2961 2.45672C11.024 2.75825 11.6854 3.20021 12.2426 3.75736C12.7998 4.31451 13.2417 4.97595 13.5432 5.7039C13.8448 6.43185 14 7.21207 14 8C14 9.5913 13.3678 11.1174 12.2426 12.2426C11.1174 13.3679 9.59126 14 7.99996 14C6.40866 14 4.88254 13.3679 3.75732 12.2426C2.6321 11.1174 1.99996 9.5913 1.99996 8ZM7.99996 0.666668C3.94996 0.666668 0.666626 3.95 0.666626 8C0.666626 12.05 3.94996 15.3333 7.99996 15.3333C12.05 15.3333 15.3333 12.05 15.3333 8C15.3333 3.95 12.05 0.666668 7.99996 0.666668ZM11.2 5.73333C11.2525 5.6633 11.2907 5.5836 11.3124 5.49879C11.3342 5.41398 11.339 5.32572 11.3266 5.23905C11.3142 5.15239 11.2849 5.06901 11.2403 4.99367C11.1957 4.91834 11.1367 4.85253 11.0666 4.8C10.9966 4.74747 10.9169 4.70925 10.8321 4.68753C10.7473 4.6658 10.659 4.66099 10.5723 4.67337C10.4857 4.68575 10.4023 4.71508 10.327 4.75968C10.2516 4.80429 10.1858 4.8633 10.1333 4.93333L6.59463 9.652L5.13796 8.19533C5.01222 8.0739 4.84382 8.0067 4.66902 8.00822C4.49423 8.00974 4.32702 8.07985 4.20341 8.20345C4.07981 8.32706 4.0097 8.49427 4.00818 8.66907C4.00666 8.84386 4.07385 9.01227 4.19529 9.138L6.19529 11.138C6.26283 11.2055 6.34408 11.2578 6.43356 11.2912C6.52303 11.3246 6.61864 11.3383 6.7139 11.3316C6.80917 11.3248 6.90187 11.2977 6.98573 11.252C7.06958 11.2063 7.14264 11.1431 7.19996 11.0667L11.2 5.73333Z" fill="white"/>
</svg>
