<svg width="24" height="24" viewBox="0 0 24 24" fill="none" xmlns="http://www.w3.org/2000/svg">
<path fill-rule="evenodd" clip-rule="evenodd" d="M9.707 10.293C9.5184 10.1108 9.2658 10.01 9.0036 10.0123C8.7414 10.0146 8.49059 10.1198 8.30518 10.3052C8.11977 10.4906 8.0146 10.7414 8.01233 11.0036C8.01005 11.2658 8.11084 11.5184 8.293 11.707L10.586 14L8.293 16.293C8.19749 16.3852 8.12131 16.4956 8.0689 16.6176C8.01649 16.7396 7.9889 16.8708 7.98775 17.0036C7.9866 17.1364 8.0119 17.2681 8.06218 17.391C8.11246 17.5139 8.18671 17.6255 8.28061 17.7194C8.3745 17.8133 8.48615 17.8875 8.60905 17.9378C8.73194 17.9881 8.86362 18.0134 8.9964 18.0123C9.12918 18.0111 9.2604 17.9835 9.3824 17.9311C9.50441 17.8787 9.61475 17.8025 9.707 17.707L12 15.414L14.293 17.707C14.4816 17.8892 14.7342 17.99 14.9964 17.9877C15.2586 17.9854 15.5094 17.8802 15.6948 17.6948C15.8802 17.5094 15.9854 17.2586 15.9877 16.9964C15.99 16.7342 15.8892 16.4816 15.707 16.293L13.414 14L15.707 11.707C15.8892 11.5184 15.99 11.2658 15.9877 11.0036C15.9854 10.7414 15.8802 10.4906 15.6948 10.3052C15.5094 10.1198 15.2586 10.0146 14.9964 10.0123C14.7342 10.01 14.4816 10.1108 14.293 10.293L12 12.586L9.707 10.293Z" fill="#505662"/>
<path d="M5 8C4.44772 8 4 8.44772 4 9V19C4 19.7956 4.31607 20.5587 4.87868 21.1213C5.44129 21.6839 6.20435 22 7 22H17C17.7956 22 18.5587 21.6839 19.1213 21.1213C19.6839 20.5587 20 19.7956 20 19V9C20 8.44771 19.5523 8 19 8C18.4477 8 18 8.44772 18 9V19C18 19.2652 17.8946 19.5196 17.7071 19.7071C17.5196 19.8946 17.2652 20 17 20H7C6.73478 20 6.48043 19.8946 6.29289 19.7071C6.10536 19.5196 6 19.2652 6 19V9C6 8.44771 5.55228 8 5 8Z" fill="#505662"/>
<path d="M8 3C8 2.44772 8.44772 2 9 2H15C15.5523 2 16 2.44772 16 3C16 3.55228 15.5523 4 15 4H9C8.44772 4 8 3.55228 8 3Z" fill="#505662"/>
<path d="M3 6C3 5.44772 3.44772 5 4 5H20C20.5523 5 21 5.44772 21 6C21 6.55228 20.5523 7 20 7H4C3.44772 7 3 6.55228 3 6Z" fill="#505662"/>
</svg>
