<svg width="15" height="12" viewBox="0 0 15 12" fill="none" xmlns="http://www.w3.org/2000/svg">
<path fill-rule="evenodd" clip-rule="evenodd" d="M4.33313 4.66666C4.33313 3.95942 4.61409 3.28114 5.11418 2.78104C5.61428 2.28095 6.29256 2 6.9998 2C7.70704 2 8.38532 2.28095 8.88542 2.78104C9.38552 3.28114 9.66647 3.95942 9.66647 4.66666V5.33333H10.3331C10.6396 5.33333 10.943 5.39368 11.2261 5.51094C11.5092 5.6282 11.7664 5.80008 11.9831 6.01675C12.1997 6.23342 12.3716 6.49064 12.4889 6.77374C12.6061 7.05683 12.6665 7.36025 12.6665 7.66666C12.6665 7.97308 12.6061 8.2765 12.4889 8.55959C12.3716 8.84268 12.1997 9.09991 11.9831 9.31658C11.7664 9.53325 11.5092 9.70512 11.2261 9.82238C10.943 9.93964 10.6396 10 10.3331 10H9.66647C9.48966 10 9.32009 10.0702 9.19506 10.1953C9.07004 10.3203 8.9998 10.4899 8.9998 10.6667C8.9998 10.8435 9.07004 11.013 9.19506 11.1381C9.32009 11.2631 9.48966 11.3333 9.66647 11.3333H10.3331C11.2526 11.3345 12.1389 10.9902 12.8164 10.3687C13.4939 9.74722 13.9133 8.89386 13.9913 7.97775C14.0693 7.06165 13.8003 6.14968 13.2376 5.42257C12.6749 4.69546 11.8595 4.20629 10.9531 4.052C10.8067 3.10859 10.3277 2.24864 9.60274 1.62748C8.87774 1.00633 7.95451 0.664917 6.9998 0.664917C6.0451 0.664917 5.12186 1.00633 4.39686 1.62748C3.67186 2.24864 3.19289 3.10859 3.04647 4.052C2.14306 4.20971 1.3315 4.70013 0.771755 5.42657C0.212015 6.15301 -0.0552968 7.06278 0.0225099 7.97655C0.100317 8.89032 0.517597 9.74179 1.1921 10.3631C1.8666 10.9845 2.7494 11.3306 3.66647 11.3333H4.33313C4.50994 11.3333 4.67951 11.2631 4.80454 11.1381C4.92956 11.013 4.9998 10.8435 4.9998 10.6667C4.9998 10.4899 4.92956 10.3203 4.80454 10.1953C4.67951 10.0702 4.50994 10 4.33313 10H3.66647C3.36005 10 3.05663 9.93964 2.77354 9.82238C2.49045 9.70512 2.23322 9.53325 2.01655 9.31658C1.79988 9.09991 1.62801 8.84268 1.51075 8.55959C1.39349 8.2765 1.33313 7.97308 1.33313 7.66666C1.33313 7.36025 1.39349 7.05683 1.51075 6.77374C1.62801 6.49064 1.79988 6.23342 2.01655 6.01675C2.23322 5.80008 2.49045 5.6282 2.77354 5.51094C3.05663 5.39368 3.36005 5.33333 3.66647 5.33333H4.33313V4.66666ZM9.47113 6.862L7.47113 4.862C7.34612 4.73702 7.17658 4.66681 6.9998 4.66681C6.82302 4.66681 6.65349 4.73702 6.52847 4.862L4.52847 6.862C4.46479 6.92349 4.41401 6.99706 4.37907 7.07839C4.34413 7.15973 4.32574 7.24721 4.32497 7.33573C4.3242 7.42425 4.34107 7.51203 4.37459 7.59397C4.40811 7.6759 4.45761 7.75033 4.5202 7.81293C4.5828 7.87552 4.65723 7.92502 4.73916 7.95854C4.8211 7.99206 4.90888 8.00893 4.9974 8.00816C5.08592 8.00739 5.1734 7.989 5.25474 7.95406C5.33607 7.91913 5.40964 7.86834 5.47113 7.80466L6.33313 6.94266V10.6667C6.33313 10.8435 6.40337 11.013 6.5284 11.1381C6.65342 11.2631 6.82299 11.3333 6.9998 11.3333C7.17661 11.3333 7.34618 11.2631 7.4712 11.1381C7.59623 11.013 7.66647 10.8435 7.66647 10.6667V6.94266L8.52847 7.80466C8.6542 7.9261 8.8226 7.9933 8.9974 7.99178C9.1722 7.99026 9.33941 7.92015 9.46301 7.79654C9.58662 7.67294 9.65673 7.50573 9.65825 7.33093C9.65977 7.15613 9.59257 6.98773 9.47113 6.862Z" fill="#4898A8"/>
</svg>
