<svg width="24" height="24" viewBox="0 0 24 24" fill="none" xmlns="http://www.w3.org/2000/svg">
<path fill-rule="evenodd" clip-rule="evenodd" d="M12.9999 11.9999C12.9999 11.7347 12.8945 11.4803 12.707 11.2928C12.5195 11.1053 12.2651 10.9999 11.9999 10.9999H9.41389L10.7069 9.70689C10.8024 9.61465 10.8786 9.5043 10.931 9.3823C10.9834 9.26029 11.011 9.12907 11.0121 8.99629C11.0133 8.86351 10.988 8.73184 10.9377 8.60894C10.8874 8.48604 10.8132 8.37439 10.7193 8.2805C10.6254 8.18661 10.5137 8.11235 10.3908 8.06207C10.268 8.01179 10.1363 7.98649 10.0035 7.98764C9.87071 7.9888 9.73949 8.01638 9.61749 8.06879C9.49548 8.1212 9.38514 8.19738 9.29289 8.29289L6.29289 11.2929C6.10542 11.4804 6.00011 11.7347 6.00011 11.9999C6.00011 12.2651 6.10542 12.5194 6.29289 12.7069L9.29289 15.7069C9.4815 15.8891 9.7341 15.9898 9.99629 15.9876C10.2585 15.9853 10.5093 15.8801 10.6947 15.6947C10.8801 15.5093 10.9853 15.2585 10.9876 14.9963C10.9898 14.7341 10.8891 14.4815 10.7069 14.2929L9.41389 12.9999H11.9999C12.2651 12.9999 12.5195 12.8945 12.707 12.707C12.8945 12.5195 12.9999 12.2651 12.9999 11.9999ZM4.00011 19.9999C3.73489 19.9999 3.48054 19.8945 3.293 19.707C3.10546 19.5195 3.00011 19.2651 3.00011 18.9999L3.00011 4.99989C3.00011 4.73468 3.10546 4.48032 3.293 4.29279C3.48054 4.10525 3.73489 3.99989 4.00011 3.99989C4.26532 3.99989 4.51968 4.10525 4.70721 4.29279C4.89475 4.48032 5.00011 4.73468 5.00011 4.99989L5.00011 18.9999C5.00011 19.2651 4.89475 19.5195 4.70721 19.707C4.51968 19.8945 4.26532 19.9999 4.00011 19.9999Z" fill="#505662"/>
<path fill-rule="evenodd" clip-rule="evenodd" d="M11.0001 11.9999C11.0001 11.7347 11.1055 11.4803 11.293 11.2928C11.4805 11.1053 11.7347 10.9999 11.9999 10.9999H14.5861L13.2931 9.70689C13.1976 9.61465 13.1214 9.5043 13.069 9.3823C13.0166 9.26029 12.989 9.12907 12.9879 8.99629C12.9867 8.86351 13.012 8.73184 13.0623 8.60894C13.1126 8.48604 13.1868 8.37439 13.2807 8.2805C13.3746 8.18661 13.4863 8.11235 13.6092 8.06207C13.732 8.01179 13.8637 7.98649 13.9965 7.98764C14.1293 7.9888 14.2605 8.01638 14.3825 8.06879C14.5045 8.1212 14.6149 8.19738 14.7071 8.29289L17.7071 11.2929C17.8946 11.4804 17.9999 11.7347 17.9999 11.9999C17.9999 12.2651 17.8946 12.5194 17.7071 12.7069L14.7071 15.7069C14.5185 15.8891 14.2659 15.9898 14.0037 15.9876C13.7415 15.9853 13.4907 15.8801 13.3053 15.6947C13.1199 15.5093 13.0147 15.2585 13.0124 14.9963C13.0102 14.7341 13.1109 14.4815 13.2931 14.2929L14.5861 12.9999H11.9999C11.7347 12.9999 11.4805 12.8945 11.293 12.707C11.1055 12.5195 11.0001 12.2651 11.0001 11.9999ZM19.9999 19.9999C20.2651 19.9999 20.5195 19.8945 20.707 19.707C20.8945 19.5195 20.9999 19.2651 20.9999 18.9999V4.99989C20.9999 4.73468 20.8945 4.48032 20.707 4.29279C20.5195 4.10525 20.2651 3.99989 19.9999 3.99989C19.7347 3.99989 19.4803 4.10525 19.2928 4.29279C19.1052 4.48032 18.9999 4.73468 18.9999 4.99989V18.9999C18.9999 19.2651 19.1052 19.5195 19.2928 19.707C19.4803 19.8945 19.7347 19.9999 19.9999 19.9999Z" fill="#505662"/>
</svg>
