<svg width="80" height="44" viewBox="0 0 80 44" fill="none" xmlns="http://www.w3.org/2000/svg">
<path fill-rule="evenodd" clip-rule="evenodd" d="M54.2787 28.1291C54.0047 27.4957 54.2961 26.7591 54.9287 26.485C59.0894 24.6824 61.9981 20.539 61.9981 15.7235C61.9981 9.25212 56.7461 4.00004 50.274 4.00004H27.6719C21.2005 4.00004 15.9478 9.25212 15.9478 15.7235C15.9478 20.2736 18.5431 24.223 22.3392 26.1677C22.9532 26.4824 23.1958 27.2357 22.8812 27.8504C22.5665 28.4644 21.8131 28.7071 21.1985 28.3924C16.6024 26.037 13.4478 21.249 13.4478 15.7235C13.4478 7.87143 19.8198 1.5 27.6719 1.5H50.274C58.1268 1.5 64.4981 7.87143 64.4981 15.7235C64.4981 21.5716 60.9648 26.595 55.9227 28.7791C55.2894 29.0531 54.5527 28.7617 54.2787 28.1291Z" fill="#4898A8"/>
<path fill-rule="evenodd" clip-rule="evenodd" d="M49.0367 42.1627C48.3954 41.9073 48.082 41.18 48.3367 40.5393C49.5907 37.3866 49.9961 34.3865 49.9961 30.2938V26.4451C49.9961 25.6898 49.5767 25.4971 49.2487 25.4971C48.9187 25.4971 48.5014 25.6904 48.5014 26.4451C48.5014 26.4837 48.4994 26.5211 48.496 26.5584V27.7958C48.496 28.4858 47.9354 29.0458 47.246 29.0458C46.556 29.0458 45.996 28.4858 45.996 27.7958V24.4484C45.996 24.0664 45.8627 23.8651 45.7233 23.7437C45.5593 23.6017 45.3013 23.5011 44.9987 23.5011C44.6953 23.5011 44.4373 23.6017 44.2733 23.7437C44.1347 23.8651 44.0013 24.0664 44.0013 24.4484C44.0013 24.4897 43.9993 24.5297 43.9953 24.5697V27.2964C43.9953 27.9865 43.4347 28.5465 42.7453 28.5465C42.0553 28.5465 41.4953 27.9865 41.4953 27.2964V23.9491C41.4953 23.5671 41.362 23.3657 41.2226 23.2444C41.0593 23.1024 40.8013 23.0017 40.4986 23.0017C40.1953 23.0017 39.9373 23.1024 39.774 23.2444C39.6353 23.365 39.502 23.5671 39.502 23.9491C39.502 23.9937 39.4995 24.0377 39.4946 24.0811L39.4951 27.0244C39.4951 27.7144 38.9344 28.2745 38.2451 28.2745C37.5551 28.2745 36.9951 27.7144 36.9951 27.0244V16.1436C36.9951 15.4943 36.6024 15.1956 36.0271 15.1956C35.4651 15.1956 35.0171 15.4929 34.9991 16.1616V34.3625L28.6006 27.5638L28.4372 27.4584C27.9266 27.1838 27.4892 27.3311 27.2412 27.5658C26.9865 27.8071 26.8405 28.2078 27.2812 28.7311L27.3166 28.7731L35.294 40.1173C35.6913 40.682 35.5553 41.462 34.9906 41.8587C34.426 42.256 33.6459 42.12 33.2493 41.5553L25.3046 30.2545L24.9472 29.7405C24.1319 28.3085 24.4865 26.7318 25.5212 25.7518C26.6732 24.6591 28.5686 24.3951 30.1713 25.6097L30.2546 25.6731L32.4993 28.0578V16.1263C32.5619 13.8502 34.3819 12.6956 36.0273 12.6956C37.702 12.6956 39.4953 13.8836 39.4953 16.1436V20.6363C39.8267 20.5457 40.166 20.5017 40.4987 20.5017C41.3187 20.5017 42.184 20.7677 42.8633 21.3577C42.9307 21.417 42.996 21.479 43.0587 21.543C43.6547 21.1717 44.3407 21.001 44.9987 21.001C45.8194 21.001 46.6847 21.267 47.3634 21.857C47.7607 22.203 48.0701 22.639 48.2647 23.1484C48.5861 23.047 48.9187 22.997 49.2487 22.997C50.0487 22.997 50.8694 23.291 51.4954 23.9031C52.1348 24.5284 52.4961 25.4131 52.4961 26.4451V30.2938C52.4961 34.5746 52.0701 37.9166 50.6601 41.4627C50.4047 42.104 49.6774 42.4173 49.0367 42.1627H49.0367Z" fill="#A9AFBC"/>
</svg>
