<svg width="80" height="44" viewBox="0 0 80 44" fill="none" xmlns="http://www.w3.org/2000/svg">
<path fill-rule="evenodd" clip-rule="evenodd" d="M8 27.2507V21.1201H10.5197V27.2507C10.5197 28.3164 11.3864 29.1852 12.4588 29.1852H18.6598C19.7161 29.1852 20.5748 28.3406 20.5983 27.3058C20.5983 27.2803 20.5983 27.2655 20.5983 27.2507V21.1201H23.1186V27.2507C23.1186 27.2655 23.1179 27.2803 23.1179 27.3058C23.1415 28.3406 23.9995 29.1852 25.0571 29.1852H31.2581C32.3298 29.1852 33.1973 28.3164 33.1973 27.2507V21.1201H35.7169V27.2507C35.7169 29.7119 33.7173 31.7048 31.2581 31.7048H25.0571C23.8026 31.7048 22.6684 31.1875 21.8581 30.3536C21.0471 31.1875 19.9129 31.7048 18.6598 31.7048H12.4588C9.99892 31.7048 8 29.7119 8 27.2507ZM44.2831 27.2507V21.1201H46.8027V27.2507C46.8027 28.3164 47.6695 29.1852 48.7419 29.1852H54.9429C55.9992 29.1852 56.8579 28.3406 56.8814 27.3058C56.8814 27.2803 56.8814 27.2655 56.8814 27.2507V21.1201H59.4017V27.2507C59.4017 27.2655 59.401 27.2796 59.401 27.2971C59.4239 28.3399 60.2819 29.1852 61.3402 29.1852H67.5412C68.6129 29.1852 69.4803 28.3164 69.4803 27.2507V21.1201H72V27.2507C72 29.7119 70.0004 31.7048 67.5412 31.7048H61.3402C60.0857 31.7048 58.9515 31.1875 58.1412 30.3536C57.3302 31.1875 56.196 31.7048 54.9429 31.7048H48.7419C46.282 31.7048 44.2831 29.7119 44.2831 27.2507ZM8 16.5847V10.4541C8 7.99357 9.99892 6 12.4588 6H18.6598C19.9129 6 21.0471 6.51872 21.8581 7.3519C22.6684 6.51872 23.8026 6 25.0571 6H31.2581C33.7173 6 35.7169 7.99357 35.7169 10.4541V16.5847H33.1973V10.4541C33.1973 9.38914 32.3298 8.51968 31.2581 8.51968H25.0571C23.9988 8.51968 23.1408 9.3663 23.1179 10.4084C23.1179 10.4259 23.1186 10.44 23.1186 10.4541V16.5847H20.5983V10.4541C20.5983 10.44 20.5983 10.4252 20.5983 10.3997C20.5748 9.36563 19.7161 8.51968 18.6598 8.51968H12.4588C11.3864 8.51968 10.5197 9.38914 10.5197 10.4541V16.5847H8ZM44.2831 16.5847V10.4541C44.2831 7.99357 46.282 6 48.7419 6H54.9429C56.196 6 57.3302 6.51872 58.1412 7.3519C58.9515 6.51872 60.0857 6 61.3402 6H67.5412C70.0004 6 72 7.99357 72 10.4541V16.5847H69.4803V10.4541C69.4803 9.38914 68.6129 8.51968 67.5412 8.51968H61.3402C60.2819 8.51968 59.4239 9.3663 59.401 10.4084C59.401 10.4259 59.4017 10.44 59.4017 10.4541V16.5847H56.8814V10.4541C56.8814 10.44 56.8814 10.4252 56.8814 10.3997C56.8579 9.36563 55.9992 8.51968 54.9429 8.51968H48.7419C47.6695 8.51968 46.8027 9.38914 46.8027 10.4541V16.5847H44.2831Z" fill="#A9AFBC"/>
<path d="M12.7874 36.7422C12.7874 36.0474 13.3518 35.4823 14.0472 35.4823H31.1809C31.8756 35.4823 32.4407 36.0474 32.4407 36.7422C32.4407 37.4376 31.8756 38.002 31.1809 38.002H14.0472C13.3518 38.002 12.7874 37.4376 12.7874 36.7422ZM48.5665 36.7422C48.5665 36.0474 49.1309 35.4823 49.8263 35.4823H66.96C67.6548 35.4823 68.2198 36.0474 68.2198 36.7422C68.2198 37.4376 67.6548 38.002 66.96 38.002H49.8263C49.1309 38.002 48.5665 37.4376 48.5665 36.7422ZM50.0978 24.1585C49.5945 23.92 49.1921 23.5746 48.8917 23.1224C48.5914 22.6702 48.4126 22.1287 48.3562 21.4964H50.2516C50.2879 21.7685 50.3712 21.9977 50.5023 22.1824C50.6333 22.3672 50.7999 22.5063 51.0028 22.5983C51.2058 22.6911 51.4436 22.7368 51.7157 22.7368C52.178 22.7368 52.5348 22.6111 52.7868 22.3598C53.038 22.1078 53.1644 21.7558 53.1644 21.3042V21.0032C53.1644 20.51 53.0522 20.129 52.8291 19.8589C52.6053 19.5895 52.2855 19.4551 51.8696 19.4551H50.9988V17.6907H51.8696C52.2244 17.6907 52.4978 17.5751 52.69 17.344C52.8828 17.1128 52.9796 16.7863 52.9789 16.365V16.0955C52.9796 15.6998 52.8755 15.3961 52.6672 15.1824C52.4589 14.9694 52.1652 14.8626 51.7849 14.8626C51.5585 14.8626 51.3536 14.9116 51.1688 15.009C50.9834 15.1065 50.8281 15.2543 50.7025 15.4518C50.5769 15.65 50.4855 15.8926 50.429 16.1802H48.541C48.6236 15.5331 48.8124 14.9754 49.1074 14.5085C49.403 14.0408 49.7827 13.686 50.2476 13.4448C50.7126 13.2036 51.238 13.0827 51.8232 13.0827C52.8042 13.0827 53.5621 13.336 54.0963 13.8419C54.6305 14.3472 54.8979 15.0655 54.8979 15.9954V16.2575C54.8979 16.7963 54.7561 17.2667 54.4739 17.6671C54.1911 18.0683 53.7906 18.3633 53.2719 18.5534C53.847 18.6817 54.2925 18.9734 54.609 19.4276C54.9248 19.8825 55.0827 20.4616 55.0827 21.1651V21.4272C55.0827 22.0796 54.9557 22.6373 54.701 23.0996C54.4471 23.5612 54.0768 23.9133 53.5917 24.1545C53.1059 24.3964 52.5193 24.5173 51.8313 24.5167C51.1789 24.5173 50.601 24.3977 50.0978 24.1585ZM62.051 23.6734C61.494 23.111 61.2152 22.3316 61.2152 21.3351V16.242C61.2152 15.2348 61.4954 14.4527 62.0551 13.8957C62.6148 13.338 63.4264 13.0598 64.4901 13.0598C65.5631 13.0598 66.3775 13.3373 66.9325 13.8916C67.4868 14.4466 67.7643 15.2301 67.7643 16.242V21.3351C67.7643 22.3417 67.4854 23.1238 66.9284 23.6808C66.3707 24.2385 65.5584 24.5173 64.4901 24.5167C63.4211 24.5173 62.6087 24.2358 62.051 23.6734ZM15.0644 24.4011V15.2939L13.5849 16.0411V14.1073L15.2183 13.1982H16.9055V24.4011H15.0644ZM24.9644 24.4011V22.7677L28.8399 17.6362C29.0402 17.3749 29.1954 17.1034 29.3062 16.8239C29.4164 16.5437 29.4715 16.283 29.4715 16.0411V16.0263C29.4715 15.6514 29.3573 15.3605 29.1288 15.1555C28.9004 14.9499 28.5752 14.8471 28.1539 14.8471C27.7534 14.8471 27.4289 14.9714 27.1796 15.2207C26.9304 15.47 26.7772 15.8234 26.7207 16.2803V16.2877H24.8259V16.2803C24.8978 15.6077 25.0772 15.0319 25.3648 14.5542C25.6524 14.0764 26.0327 13.7122 26.505 13.4603C26.9781 13.2083 27.5223 13.0827 28.1385 13.0827C28.8218 13.0827 29.4063 13.1969 29.8915 13.426C30.3773 13.6545 30.7455 13.9871 30.9974 14.4238C31.2487 14.8599 31.375 15.3867 31.3744 16.0028V16.0109C31.375 16.4624 31.2897 16.9213 31.1204 17.3863C30.9511 17.8506 30.7119 18.286 30.4041 18.6918L27.4068 22.6366H31.4362V24.4011H24.9644ZM65.5759 22.3168C65.807 22.0272 65.9232 21.61 65.9226 21.065V16.5114C65.9232 15.9672 65.807 15.5499 65.5759 15.2597C65.3447 14.9694 64.9826 14.8243 64.4901 14.8243C63.9969 14.8243 63.6347 14.9694 63.4036 15.2597C63.1725 15.5499 63.0569 15.9672 63.0569 16.5114V21.065C63.0569 21.61 63.1738 22.0272 63.4076 22.3168C63.6414 22.6071 64.0016 22.7522 64.4901 22.7529C64.9826 22.7522 65.3447 22.6071 65.5759 22.3168ZM38.2359 19.3563C38.2359 18.3834 39.0267 17.5932 39.9997 17.5932C40.9733 17.5932 41.7641 18.3834 41.7641 19.3563C41.7641 20.3299 40.9733 21.1201 39.9997 21.1201C39.0267 21.1201 38.2359 20.3299 38.2359 19.3563Z" fill="#4898A8"/>
</svg>
