<svg width="80" height="44" viewBox="0 0 80 44" fill="none" xmlns="http://www.w3.org/2000/svg">
<path fill-rule="evenodd" clip-rule="evenodd" d="M13.4931 34.0898V9.83281C13.4931 9.76148 13.4991 9.69081 13.5105 9.62214C13.4991 9.55348 13.4931 9.48281 13.4931 9.41081C13.4931 7.25744 15.2378 5.50142 17.3938 5.50142H42.9527C42.9542 5.50142 42.9552 5.50092 42.9567 5.50092C43.646 5.50092 44.2067 6.06159 44.2067 6.75094C44.2067 8.16563 45.348 9.30564 46.748 9.30564C48.1434 9.30564 49.2867 8.16629 49.2867 6.75094C49.2867 6.06159 49.8467 5.50092 50.5367 5.50092C50.5372 5.50092 50.5387 5.50142 50.5402 5.50142H60.0969C62.2523 5.50142 63.999 7.25744 63.999 9.41081V33.6672C63.999 33.7398 63.9923 33.8105 63.981 33.8792C63.9923 33.9478 63.999 34.0185 63.999 34.0898C63.999 36.2445 62.2523 37.9999 60.0969 37.9999H50.5367C49.8467 37.9999 49.2867 37.4399 49.2867 36.7499C49.2867 35.3365 48.144 34.1965 46.748 34.1965C45.348 34.1965 44.2067 35.3365 44.2067 36.7499C44.2067 37.4399 43.646 37.9999 42.9567 37.9999H17.3938C15.2378 37.9999 13.4931 36.2439 13.4931 34.0898ZM46.748 31.6965C49.1014 31.6965 51.0761 33.3165 51.6307 35.4999H60.0968C60.8648 35.4999 61.4988 34.8705 61.4988 34.0898C61.4988 34.0185 61.5048 33.9478 61.5161 33.8792C61.5048 33.8105 61.4988 33.7398 61.4988 33.6672V9.41081C61.4988 8.63146 60.8648 8.00145 60.0968 8.00145H51.6307C51.0761 10.1862 49.102 11.8055 46.748 11.8055C44.3907 11.8055 42.4167 10.1862 41.862 8.00145H17.3938C16.6265 8.00145 15.9931 8.63146 15.9931 9.41081C15.9931 9.48281 15.9865 9.55348 15.9751 9.62214C15.9865 9.69081 15.9931 9.76148 15.9931 9.83281V34.0898C15.9931 34.8712 16.6265 35.4999 17.3938 35.4999H41.862C42.4167 33.3165 44.3907 31.6965 46.748 31.6965Z" fill="#A9AFBC"/>
<path fill-rule="evenodd" clip-rule="evenodd" d="M45.4987 28.7558V26.7451C45.4987 26.0557 46.0587 25.4951 46.7487 25.4951C47.438 25.4951 47.9987 26.0557 47.9987 26.7451V28.7558C47.9987 29.4458 47.438 30.0058 46.7487 30.0058C46.0587 30.0058 45.4987 29.4458 45.4987 28.7558ZM31.5886 26.1871C31.5886 25.021 32.5319 24.0744 33.6933 24.0744C34.8546 24.0744 35.7979 25.021 35.7979 26.1871C35.7979 27.3531 34.8546 28.2998 33.6933 28.2998C32.5319 28.2998 31.5886 27.3531 31.5886 26.1871ZM23.8852 27.6618C23.3839 27.1877 23.3612 26.3964 23.8345 25.8944L33.3399 15.8269C33.8139 15.3256 34.6053 15.3029 35.1073 15.7762C35.6086 16.2502 35.6313 17.0416 35.1579 17.5436L25.6525 27.6111C25.1785 28.1124 24.3872 28.1351 23.8852 27.6618ZM45.4987 22.7557V20.745C45.4987 20.0556 46.0587 19.495 46.7487 19.495C47.438 19.495 47.9987 20.0556 47.9987 20.745V22.7557C47.9987 23.4457 47.438 24.0057 46.7487 24.0057C46.0587 24.0057 45.4987 23.4457 45.4987 22.7557ZM23.5858 17.3143C23.5858 16.1482 24.5299 15.2016 25.6919 15.2016C26.8539 15.2016 27.7979 16.1482 27.7979 17.3143C27.7979 18.4803 26.8539 19.427 25.6919 19.427C24.5299 19.427 23.5858 18.4803 23.5858 17.3143ZM45.4987 16.7556V14.7449C45.4987 14.0555 46.0587 13.4949 46.7487 13.4949C47.438 13.4949 47.9987 14.0555 47.9987 14.7449V16.7556C47.9987 17.4456 47.438 18.0056 46.7487 18.0056C46.0587 18.0056 45.4987 17.4456 45.4987 16.7556Z" fill="#4898A8"/>
</svg>
