<svg width="80" height="44" viewBox="0 0 80 44" fill="none" xmlns="http://www.w3.org/2000/svg">
<path fill-rule="evenodd" clip-rule="evenodd" d="M17.9918 39.5939V4.40673C17.9918 2.25137 19.7403 0.500671 21.8962 0.500671H57.0826C59.2372 0.500671 60.9877 2.2507 60.9877 4.40673V39.1726C60.9877 39.2446 60.9811 39.3153 60.9697 39.3839C60.9811 39.4519 60.9877 39.5226 60.9877 39.5939C60.9877 41.75 59.2372 43.5 57.0826 43.5H21.8962C19.7403 43.5 17.9918 41.7493 17.9918 39.5939ZM58.4879 39.5939C58.4879 39.5226 58.4939 39.4519 58.5052 39.3839C58.4939 39.3153 58.4879 39.2446 58.4879 39.1726V4.40673C58.4879 3.63139 57.8566 3.00071 57.0826 3.00071H21.8962C21.1222 3.00071 20.4916 3.63072 20.4916 4.40673V39.5939C20.4916 40.3699 21.1222 41 21.8962 41H57.0826C57.8566 41 58.4879 40.3693 58.4879 39.5939Z" fill="#A9AFBC"/>
<path fill-rule="evenodd" clip-rule="evenodd" d="M46.6494 14.0107C46.3295 14.0107 46.0096 14.133 45.7656 14.377L39.4873 20.6553L33.21 14.3779C32.7227 13.8899 31.9307 13.8899 31.4434 14.3779C30.9554 14.8653 30.9554 15.6572 31.4434 16.1445L37.7207 22.4229L31.4434 28.7002C30.9554 29.1875 30.9554 29.9788 31.4434 30.4668C31.9307 30.9548 32.722 30.9548 33.21 30.4668L39.4873 24.1895L45.7656 30.4687C46.2529 30.9568 47.0449 30.9568 47.5322 30.4687C48.0202 29.9814 48.0202 29.1885 47.5322 28.7012L41.2539 22.4229L47.5322 16.1445C48.0202 15.6572 48.0202 14.865 47.5322 14.377C47.2886 14.133 46.9693 14.0107 46.6494 14.0107Z" fill="#4898A8"/>
</svg>
