<svg width="80" height="44" viewBox="0 0 80 44" fill="none" xmlns="http://www.w3.org/2000/svg">
<path fill-rule="evenodd" clip-rule="evenodd" d="M13.4985 21.752C13.4985 21.0627 14.0585 20.5021 14.7485 20.5021H65.2489C65.9382 20.5021 66.4989 21.0627 66.4989 21.752C66.4989 22.442 65.9382 23.0019 65.2489 23.0019H14.7485C14.0585 23.0019 13.4985 22.442 13.4985 21.752Z" fill="#4898A8"/>
<path fill-rule="evenodd" clip-rule="evenodd" d="M18.8867 0C16.7547 0 14.9922 1.71088 14.9922 3.85742V13.1455C14.9922 15.2914 16.754 17.0039 18.8867 17.0039H61.1025C63.2379 17.0039 64.998 15.2907 64.998 13.1455V3.85742C64.998 1.71221 63.2372 0 61.1025 0H18.8867ZM18.8867 2.5H61.1025C61.8899 2.5 62.498 3.12479 62.498 3.85742V13.1455C62.498 13.8781 61.8892 14.5049 61.1025 14.5049H18.8867C18.1014 14.5049 17.4922 13.8775 17.4922 13.1455V3.85742C17.4922 3.12613 18.1007 2.5 18.8867 2.5ZM18.8867 26.499C16.7534 26.499 14.9922 28.2145 14.9922 30.3584C14.9922 30.4293 15.0014 30.4978 15.0127 30.5654C15.0013 30.6333 14.9922 30.7014 14.9922 30.7725V39.6426C14.9922 41.7891 16.7534 43.502 18.8867 43.502H61.1025C63.2386 43.502 64.998 41.7884 64.998 39.6426C64.998 39.5718 64.9889 39.5032 64.9775 39.4355C64.9888 39.3682 64.998 39.3 64.998 39.2295V30.3584C64.998 28.2152 63.2392 26.499 61.1025 26.499H18.8867ZM18.8867 28.999H61.1025C61.8879 28.999 62.498 29.6251 62.498 30.3584V39.2295C62.498 39.3 62.5073 39.3682 62.5186 39.4355C62.5072 39.5032 62.498 39.5718 62.498 39.6426C62.498 40.3772 61.8885 41.002 61.1025 41.002H18.8867C18.102 41.002 17.4922 40.3765 17.4922 39.6426V30.7725C17.4922 30.7014 17.4831 30.6333 17.4717 30.5654C17.483 30.4978 17.4922 30.4293 17.4922 30.3584C17.4922 29.6258 18.102 28.999 18.8867 28.999Z" fill="#A9AFBC"/>
</svg>
