<svg width="80" height="44" viewBox="0 0 80 44" fill="none" xmlns="http://www.w3.org/2000/svg">
<path fill-rule="evenodd" clip-rule="evenodd" d="M15.9932 38.1092V7.80344C15.9932 7.72743 15.9998 7.6521 16.0132 7.57943C16.0032 7.51676 15.9985 7.4521 15.9985 7.3861C15.9985 5.24273 17.7372 3.5007 19.8819 3.5007H51.9841C52.6741 3.5002 53.2341 4.06071 53.2341 4.75006C53.2346 5.44007 52.6741 6.00007 51.9848 6.00007L19.8825 6.00057C19.1192 6.00057 18.4985 6.62191 18.4985 7.38593C18.4985 7.46259 18.4912 7.53793 18.4779 7.6106C18.4879 7.67393 18.4932 7.73793 18.4932 7.80327V38.1091C18.4932 38.8784 19.1139 39.4944 19.8666 39.4944H62.1309C62.8829 39.4944 63.5042 38.8784 63.5042 38.1091C63.5042 38.0464 63.5087 37.9844 63.5176 37.9244C63.5049 37.8531 63.4982 37.7797 63.4989 37.7044L63.4994 20.2501C63.4994 19.5601 64.0594 19.0001 64.7495 19.0008C65.4395 19.0008 65.9995 19.5608 65.9988 20.2508L65.9983 37.7051C65.9983 37.7677 65.9938 37.8291 65.9843 37.8891C65.9977 37.9604 66.0043 38.0344 66.0043 38.1091C66.0043 40.2484 64.2743 41.9944 62.1309 41.9944H19.8666C17.7226 41.9944 15.9933 40.2484 15.9933 38.1091L15.9932 38.1092ZM53.5008 9.24012C53.5008 4.40872 57.4115 0.481323 62.2382 0.481323C67.0642 0.481323 70.9756 4.40872 70.9756 9.24012C70.9756 14.0722 67.0642 17.9989 62.2382 17.9989C57.4115 17.9989 53.5008 14.0722 53.5008 9.24012ZM68.4756 9.24012C68.4756 5.78274 65.6769 2.98136 62.2382 2.98136C58.7988 2.98136 56.0008 5.78274 56.0008 9.24012C56.0008 12.6982 58.7988 15.4989 62.2382 15.4989C65.6769 15.4989 68.4756 12.6982 68.4756 9.24012Z" fill="#A9AFBC"/>
<path fill-rule="evenodd" clip-rule="evenodd" d="M29.502 29.2864V29.2151C29.502 26.6144 31.6126 24.503 34.214 24.503H48.2814C50.8821 24.503 52.9935 26.6144 52.9935 29.2151V29.2864C52.9935 31.8878 50.8821 33.9985 48.2814 33.9985H34.214C31.6126 33.9985 29.502 31.8878 29.502 29.2864ZM50.4934 29.2864V29.2151C50.4934 27.9951 49.5014 27.0031 48.2814 27.0031H34.214C32.9933 27.0031 32.002 27.9951 32.002 29.2151V29.2864C32.002 30.5071 32.9933 31.4985 34.214 31.4985H48.2814C49.5014 31.4985 50.4934 30.5071 50.4934 29.2864ZM29.9933 18.7503C29.9933 18.0609 30.5533 17.5003 31.2433 17.5003H51.2541C51.9435 17.5003 52.5041 18.0609 52.5041 18.7503C52.5041 19.4403 51.9435 20.0003 51.2541 20.0003H31.2433C30.5533 20.0003 29.9933 19.4403 29.9933 18.7503ZM29.9933 13.7502C29.9933 13.0609 30.5533 12.5002 31.2433 12.5002H51.2541C51.9435 12.5002 52.5041 13.0609 52.5041 13.7502C52.5041 14.4402 51.9435 15.0002 51.2541 15.0002H31.2433C30.5533 15.0002 29.9933 14.4402 29.9933 13.7502ZM60.9882 12.3322V9.61482L60.4802 10.1242C59.9935 10.6128 59.2015 10.6142 58.7128 10.1267C58.2242 9.63998 58.2228 8.84797 58.7103 8.3593L61.353 5.70859C61.369 5.69194 61.3864 5.67594 61.4037 5.66059C61.411 5.65394 61.417 5.64859 61.3617 5.70124C61.499 5.58191 61.4597 5.61124 61.4197 5.64591C61.4277 5.63991 61.413 5.65391 61.3544 5.70724L61.3559 5.70574C61.3765 5.68509 61.3985 5.66439 61.4199 5.64574L61.3619 5.70107L61.5312 5.56174C61.5685 5.53574 61.6045 5.51309 61.5352 5.55924C61.6179 5.50257 61.6905 5.46457 61.5605 5.54189L61.5679 5.53839L61.6512 5.49374L61.7372 5.44709C61.7819 5.42774 61.8239 5.41174 61.7479 5.44309L61.7599 5.43644C61.9225 5.3791 61.8445 5.40179 61.7599 5.43644C61.8325 5.40979 61.8492 5.40309 61.7604 5.43644C61.8404 5.40309 61.9184 5.37977 61.7744 5.43109L61.7864 5.42759L61.8804 5.39894L61.967 5.37229C62.017 5.36094 62.063 5.35294 61.9757 5.37079C62.0243 5.35879 62.0517 5.35479 62.079 5.35144C62.083 5.34994 62.0825 5.34994 62.0204 5.36209L62.2284 5.34209L62.2384 5.34009L62.249 5.34159L62.3377 5.35094L62.4557 5.36229L62.469 5.36279C62.3157 5.34079 62.3957 5.34879 62.4777 5.36479C62.3843 5.34879 62.4024 5.35279 62.4812 5.36479C62.3999 5.34879 62.3199 5.34144 62.4792 5.36479L62.4918 5.36879C62.4125 5.35279 62.4585 5.36079 62.5085 5.37129L62.6018 5.40129L62.6865 5.42594L62.6938 5.42794C62.5532 5.37859 62.6312 5.40129 62.7145 5.43594C62.6272 5.40259 62.6438 5.40994 62.717 5.43644C62.635 5.40244 62.557 5.37911 62.715 5.43644L62.7236 5.44044C62.6523 5.41109 62.6943 5.42709 62.739 5.44644L62.827 5.49509L62.907 5.53709L62.9115 5.53909C62.7815 5.46175 62.8542 5.49974 62.9308 5.55109C62.8495 5.50042 62.8655 5.51109 62.9323 5.55159C62.8577 5.50159 62.785 5.46359 62.9308 5.55159L62.9348 5.55509C62.8708 5.51244 62.9075 5.53509 62.9455 5.56109C62.9535 5.56559 62.9655 5.57444 63.1028 5.69176C62.9682 5.57509 63.0115 5.60776 63.0535 5.64376C63.055 5.64426 63.0628 5.65176 63.0741 5.66176C63.0895 5.67576 63.1048 5.69041 63.1201 5.70511C63.1236 5.70911 63.1268 5.71246 63.1301 5.71576L65.7655 8.35846C66.2528 8.84714 66.2515 9.63915 65.763 10.1258C65.2743 10.6132 64.4823 10.6118 63.9956 10.1233L63.4883 9.61465V12.3314C63.4883 13.0214 62.9276 13.5814 62.2383 13.5814C61.5483 13.5814 60.9883 13.0214 60.9883 12.3314L60.9882 12.3322Z" fill="#4898A8"/>
</svg>
