<svg width="80" height="44" viewBox="0 0 80 44" fill="none" xmlns="http://www.w3.org/2000/svg">
<path fill-rule="evenodd" clip-rule="evenodd" d="M14.4991 37.1518V7.26072C14.4991 7.19072 14.5045 7.12139 14.5158 7.05405C14.5044 6.98672 14.4991 6.91738 14.4991 6.84672C14.4991 4.71135 16.2445 2.99866 18.3732 2.99866H60.6315C62.7582 2.99866 64.5042 4.71135 64.5042 6.84672V37.1518C64.5042 39.2872 62.7595 41.0019 60.6315 41.0019H18.3732C16.2438 41.0019 14.4991 39.2879 14.4991 37.1518ZM62.0042 37.1518V6.84672C62.0042 6.1147 61.4002 5.49869 60.6315 5.49869H18.3732C17.6025 5.49869 16.9992 6.1147 16.9992 6.84672C16.9992 6.91738 16.9932 6.98672 16.9818 7.05405C16.9932 7.12139 16.9992 7.19072 16.9992 7.26072V37.1518C16.9992 37.8859 17.6032 38.5019 18.3732 38.5019H60.6315C61.3988 38.5019 62.0042 37.8865 62.0042 37.1518Z" fill="#A9AFBC"/>
<path fill-rule="evenodd" clip-rule="evenodd" d="M28.0019 29.2865V29.2152C28.0019 26.6145 30.1126 24.5031 32.7139 24.5031H46.7814C49.382 24.5031 51.4934 26.6145 51.4934 29.2152V29.2865C51.4934 31.8879 49.382 33.9986 46.7814 33.9986H32.7139C30.1126 33.9986 28.0019 31.8879 28.0019 29.2865ZM48.9934 29.2865V29.2152C48.9934 27.9952 48.0014 27.0031 46.7814 27.0031H32.7139C31.4933 27.0031 30.5019 27.9952 30.5019 29.2152V29.2865C30.5019 30.5072 31.4933 31.4985 32.7139 31.4985H46.7814C48.0014 31.4985 48.9934 30.5072 48.9934 29.2865ZM28.4932 18.2503C28.4932 17.561 29.0532 17.0003 29.7432 17.0003H49.7541C50.4434 17.0003 51.0041 17.561 51.0041 18.2503C51.0041 18.9403 50.4434 19.5004 49.7541 19.5004H29.7432C29.0532 19.5004 28.4932 18.9403 28.4932 18.2503ZM28.4932 13.2503C28.4932 12.5609 29.0532 12.0002 29.7432 12.0002H49.7541C50.4434 12.0002 51.0041 12.5609 51.0041 13.2503C51.0041 13.9403 50.4434 14.5003 49.7541 14.5003H29.7432C29.0532 14.5003 28.4932 13.9403 28.4932 13.2503Z" fill="#4898A8"/>
</svg>
