<svg width="80" height="44" viewBox="0 0 80 44" fill="none" xmlns="http://www.w3.org/2000/svg">
<path fill-rule="evenodd" clip-rule="evenodd" d="M51.8223 37.1019C51.3523 36.5965 51.3803 35.8052 51.8856 35.3352L65.4041 22.7503L51.8856 10.1661C51.3803 9.69614 51.3523 8.90479 51.8223 8.39945C52.2923 7.89411 53.0836 7.86611 53.5889 8.33612L68.09 21.835C68.1046 21.849 68.1293 21.873 68.1539 21.8983L68.202 21.9623C68.1773 21.9283 68.1793 21.9277 68.2733 22.057L68.2646 22.0416C68.2466 22.013 68.2486 22.0156 68.2646 22.0416C68.254 22.025 68.2631 22.0401 68.2806 22.0663C68.2446 22.0123 68.2126 21.969 68.2733 22.0569C68.2693 22.0476 68.3013 22.0996 68.3393 22.1689C68.3219 22.1309 68.3239 22.1303 68.3919 22.2789L68.3884 22.2696C68.3718 22.2249 68.3731 22.2269 68.3884 22.2696C68.3764 22.2389 68.3824 22.2549 68.3938 22.2829C68.3698 22.2236 68.3478 22.1763 68.3918 22.2789C68.3844 22.2543 68.4011 22.2996 68.4178 22.3536C68.4458 22.387 68.4818 22.5456 68.4805 22.7503C68.4965 22.5509 68.5105 22.7983 68.4178 23.147C68.4738 22.9356 68.4745 22.9736 68.3958 23.2116L68.4011 23.1996C68.4165 23.165 68.4151 23.169 68.4011 23.1996C68.4111 23.1763 68.4046 23.191 68.3938 23.2176C68.4124 23.1703 68.4278 23.1243 68.3958 23.2116C68.4003 23.205 68.3758 23.2596 68.3391 23.3316C68.3618 23.2936 68.3645 23.293 68.2845 23.427L68.2931 23.4156C68.3138 23.3863 68.3118 23.3896 68.2931 23.4156C68.3065 23.3963 68.2966 23.4103 68.2805 23.4343C68.3151 23.3823 68.3411 23.3376 68.2845 23.4269C68.289 23.4229 68.2531 23.4729 68.2018 23.5382C68.2631 23.4709 68.2125 23.5387 68.1538 23.6016C68.1432 23.6129 68.1332 23.6236 68.1225 23.6342C68.1118 23.6449 68.1011 23.6549 68.0904 23.6649L53.5887 37.1651C53.0834 37.6351 52.2921 37.6071 51.8221 37.1017L51.8223 37.1019ZM26.2139 36.7292L11.5662 23.3357C11.5568 23.3277 11.5482 23.3197 11.5355 23.307C11.5215 23.2944 11.5042 23.2764 11.4875 23.257C11.4289 23.1937 11.3789 23.1257 11.4462 23.2017C11.3482 23.0804 11.3068 23.009 11.3675 23.0964C11.2935 22.983 11.2582 22.9084 11.3082 22.995C11.2395 22.8617 11.2129 22.785 11.2542 22.8804C11.2042 22.7557 11.1849 22.677 11.2162 22.7697C11.1755 22.629 11.1642 22.5497 11.1862 22.6504C11.1615 22.5183 11.1575 22.4377 11.1702 22.535C11.1575 22.3897 11.1615 22.309 11.1635 22.4117C11.165 22.2777 11.1755 22.1983 11.1695 22.2977C11.1849 22.1503 11.2042 22.0717 11.1869 22.173C11.2135 22.0423 11.2395 21.9657 11.2149 22.0617C11.2582 21.919 11.2935 21.8443 11.2555 21.9437C11.3075 21.8183 11.3489 21.747 11.3069 21.835C11.3429 21.7683 11.3729 21.7183 11.3682 21.7283C11.4402 21.6263 11.4068 21.671 11.3682 21.7288C11.3828 21.7055 11.3915 21.6915 11.3697 21.7263C11.3943 21.6857 11.397 21.6817 11.3697 21.7263L11.3682 21.7283C11.4735 21.585 11.4735 21.5883 11.4449 21.6263L11.4875 21.5697C11.5229 21.531 11.5608 21.4943 11.5655 21.4917L26.2139 8.0988C26.7232 7.63279 27.5145 7.66879 27.9798 8.17747C28.4458 8.68681 28.4098 9.47815 27.9011 9.94349L14.262 22.4137L27.9011 34.8845C28.4104 35.3499 28.4458 36.1412 27.9798 36.6506C27.5145 37.1599 26.7232 37.1952 26.2139 36.7292L26.2139 36.7292ZM68.1199 21.869L68.09 21.835C68.068 21.8143 68.0673 21.8163 68.1199 21.869ZM11.5288 21.5323C11.5588 21.5017 11.5688 21.4903 11.5655 21.4917L11.5288 21.5323Z" fill="#A9AFBC"/>
<path fill-rule="evenodd" clip-rule="evenodd" d="M33.3347 41.4246C32.6828 41.1986 32.3375 40.4859 32.5634 39.8339L45.0533 3.84072C45.2793 3.18871 45.9919 2.84337 46.6439 3.06937C47.2959 3.29538 47.6412 4.00805 47.4152 4.66006L34.9253 40.6533C34.6993 41.3053 33.9867 41.6506 33.3347 41.4246Z" fill="#4898A8"/>
</svg>
