<svg width="80" height="44" viewBox="0 0 80 44" fill="none" xmlns="http://www.w3.org/2000/svg">
<path fill-rule="evenodd" clip-rule="evenodd" d="M18.3664 2.5C16.2243 2.5 14.4933 4.24515 14.4933 6.38385V37.1089C14.4933 39.2483 16.2243 40.9928 18.3664 40.9928H60.6294C62.7707 40.9928 64.5044 39.2483 64.5044 37.1089C64.5044 37.0368 64.4947 36.9677 64.4829 36.899C64.4946 36.8304 64.5044 36.7609 64.5044 36.689V6.38385C64.5044 4.24448 62.7707 2.5 60.6294 2.5H18.3664ZM18.3664 5.00003H60.6294C61.382 5.00003 62.0044 5.61717 62.0044 6.38385V36.689C62.0044 36.7609 62.0142 36.8304 62.0259 36.899C62.0141 36.9677 62.0044 37.0368 62.0044 37.1089C62.0044 37.8756 61.382 38.4927 60.6294 38.4927H18.3664C17.6143 38.4927 16.9933 37.8756 16.9933 37.1089V6.38385C16.9933 5.6165 17.6144 5.00003 18.3664 5.00003Z" fill="#A9AFBC"/>
<path fill-rule="evenodd" clip-rule="evenodd" d="M20.0672 30.9751C19.5939 30.4731 19.6165 29.6818 20.1178 29.2078L27.6512 22.093C28.1312 21.6396 28.8826 21.6383 29.3646 22.0905L35.2093 27.5692L46.4934 17.0651C46.9927 16.6004 47.7734 16.6217 48.2461 17.1137L58.7081 27.9946C59.1861 28.4919 59.1708 29.2839 58.6735 29.7619C58.1761 30.2399 57.3841 30.2246 56.9061 29.7273L47.2967 19.7331L36.058 30.1946C35.5773 30.6419 34.8306 30.6406 34.3513 30.1911L28.5126 24.7184L21.8345 31.0258C21.3325 31.4991 20.5412 31.4765 20.0672 30.9751L20.0672 30.9751ZM31.9973 14.7502C31.9973 13.5082 33.006 12.4995 34.248 12.4995C35.49 12.4995 36.4986 13.5082 36.4986 14.7502C36.4986 15.9922 35.49 17.0002 34.248 17.0002C33.006 17.0002 31.9973 15.9922 31.9973 14.7502Z" fill="#4898A8"/>
</svg>
