<svg width="80" height="44" viewBox="0 0 80 44" fill="none" xmlns="http://www.w3.org/2000/svg">
<path fill-rule="evenodd" clip-rule="evenodd" d="M15.0038 39.7506C15.0038 39.0612 15.5638 38.5005 16.2538 38.5005H63.7435C64.4328 38.5005 64.9935 39.0612 64.9935 39.7506C64.9935 40.4406 64.4328 41.0006 63.7435 41.0006H16.2538C15.5638 41.0006 15.0038 40.4406 15.0038 39.7506ZM15.0038 3.75002C15.0038 3.06068 15.5638 2.5 16.2538 2.5H63.7435C64.4328 2.5 64.9935 3.06068 64.9935 3.75002C64.9935 4.44003 64.4328 5.00003 63.7435 5.00003H16.2538C15.5638 5.00003 15.0038 4.44003 15.0038 3.75002Z" fill="#A9AFBC"/>
<path fill-rule="evenodd" clip-rule="evenodd" d="M40.2467 37.4973C40.2253 37.4948 40.1573 37.4866 39.9853 37.4699C39.8907 37.4493 39.9493 37.4646 40.0087 37.4759C40.0062 37.4759 40.0033 37.4759 40.002 37.4764C40.0927 37.4998 39.9607 37.4779 40.002 37.4764C39.994 37.4739 39.984 37.4719 39.9727 37.4684L39.9853 37.4699C39.6647 37.3726 39.5153 37.2826 39.4233 37.1819L39.364 37.1333L33.8666 31.6405C33.3786 31.1525 33.3786 30.3605 33.8661 29.8725C34.3541 29.3845 35.1461 29.3845 35.6341 29.872L38.9982 33.2341V10.7704L35.6341 14.1324C35.1461 14.6198 34.3541 14.6198 33.8661 14.1319C33.3788 13.6439 33.3788 12.8519 33.8666 12.3639L39.3207 6.91249C39.3887 6.83782 39.4653 6.77115 39.3893 6.84649C39.4913 6.75715 39.5253 6.73249 39.5167 6.74115C39.566 6.7058 39.608 6.67848 39.5407 6.72515C39.6287 6.66448 39.7013 6.62582 39.576 6.70115L39.5847 6.69515C39.6807 6.64115 39.6407 6.66315 39.5787 6.69865C39.6053 6.682 39.6213 6.672 39.5987 6.686C39.6333 6.66335 39.6353 6.66265 39.5987 6.686L39.5847 6.69535C39.7247 6.61868 39.728 6.61735 39.7173 6.62335C39.7767 6.596 39.826 6.576 39.752 6.6087C39.852 6.56535 39.9293 6.5427 39.7946 6.5907C39.868 6.56005 39.8606 6.5647 39.8066 6.58535C39.9306 6.544 39.9693 6.53468 39.94 6.544C40.0086 6.52735 40.064 6.51665 39.978 6.536C40.0873 6.512 40.1673 6.504 40.0286 6.52535C40.1133 6.508 40.1073 6.5107 40.054 6.52085C40.168 6.5062 40.208 6.5042 40.1873 6.5075L40.248 6.50085L40.3086 6.5075C40.288 6.504 40.328 6.506 40.4393 6.52085C40.3866 6.51085 40.3813 6.5082 40.464 6.52485C40.3273 6.5042 40.4073 6.5122 40.5186 6.53685C40.4313 6.51685 40.4873 6.5275 40.5573 6.54485C40.5259 6.53485 40.5646 6.54485 40.6839 6.5842C40.6319 6.5642 40.6259 6.5602 40.6973 6.5902C40.5646 6.5422 40.642 6.56555 40.7459 6.61085C40.6693 6.5762 40.7193 6.59685 40.7799 6.62485C40.7679 6.6182 40.7706 6.6195 40.9079 6.69486L40.8993 6.68886C40.8579 6.66221 40.8606 6.66286 40.8993 6.68886C40.8706 6.67086 40.8853 6.68021 40.9113 6.69621C40.852 6.66221 40.8126 6.64154 40.9078 6.69471L40.9138 6.69871C40.7925 6.62604 40.8651 6.66406 40.9584 6.72936C40.8864 6.67936 40.9298 6.70736 40.9811 6.74401C40.9697 6.73336 41.0037 6.75801 41.1004 6.84268C41.0391 6.78601 41.0498 6.79268 41.0884 6.82933C41.1024 6.84198 41.1171 6.85598 41.1311 6.86933L46.6298 12.3641C47.1178 12.8521 47.1178 13.6441 46.6303 14.1321C46.1423 14.6201 45.3503 14.6201 44.8623 14.1326L41.4976 10.7706V33.2336L44.8623 29.8722C45.3509 29.3848 46.1429 29.3848 46.6303 29.8727C47.1176 30.3614 47.1176 31.1534 46.6298 31.6407L41.1311 37.1335L41.0711 37.1828C40.9791 37.2828 40.8284 37.3728 40.5071 37.4708L40.5217 37.4688C40.5097 37.4723 40.4997 37.4742 40.4917 37.4768C40.5311 37.4783 40.4011 37.5002 40.4917 37.4768C40.4897 37.4763 40.4877 37.4763 40.4851 37.4763C40.5444 37.465 40.6024 37.4497 40.5071 37.471C40.3357 37.487 40.2677 37.495 40.2464 37.4976C40.2604 37.4996 40.2531 37.4996 40.2464 37.4996C40.2391 37.4996 40.2318 37.4996 40.2464 37.4976L40.2467 37.4973Z" fill="#4898A8"/>
</svg>
