<svg width="80" height="44" viewBox="0 0 80 44" fill="none" xmlns="http://www.w3.org/2000/svg">
<path fill-rule="evenodd" clip-rule="evenodd" d="M60.4987 33.7499V23.5004H58.7467C58.0567 23.5004 57.4967 22.9404 57.4967 22.2504C57.4967 21.561 58.0567 21.0003 58.7467 21.0003H60.4987V18.5503C60.5002 17.1703 60.8741 15.8656 61.8114 14.9049C62.7521 13.9396 64.0887 13.5009 65.6334 13.5009C66.3228 13.5009 66.8834 14.0616 66.8834 14.7509C66.8834 15.4409 66.3228 16.0009 65.6334 16.0009C64.5521 16.0009 63.9467 16.2956 63.6014 16.6496C63.2541 17.0063 63.0001 17.6016 62.9987 18.5523V21.0003H64.7507C65.4401 21.0003 66.0008 21.561 66.0008 22.2504C66.0008 22.9404 65.4401 23.5004 64.7507 23.5004H62.9987V33.7499C62.9987 34.4399 62.4381 34.9999 61.7487 34.9999C61.0587 34.9999 60.4987 34.4399 60.4987 33.7499ZM11.4257 30.0431L8.797 28.8251L13.4357 26.9684L12.981 26.5824C9.87101 23.6317 9.50967 19.0896 10.7357 13.9696L11.2023 12.0209L12.7477 13.2969C15.1064 15.2456 16.9124 16.4396 18.5664 17.1236L18.8491 17.2276L18.8917 17.0123C19.9057 13.2582 23.9791 11.3082 28.0505 13.4942L28.7971 13.9549L32.5458 15.2049L31.4031 17.4916L34.3945 17.9883L31.1431 21.8904C29.9871 30.5678 21.0731 34.5125 11.4257 30.0431ZM28.7031 21.2437L28.7425 20.8663L29.6812 19.7397L27.6532 19.4023L29.0205 16.6649L27.7052 16.2256L27.5565 16.1216C24.1631 13.7469 21.1524 15.7216 21.1524 18.8636L21.1238 19.005L21.1198 19.147L21.0751 19.2443L21.0538 19.3503L20.9711 19.473L20.9138 19.599L20.8398 19.6677L20.7858 19.7477L20.6685 19.827L20.5624 19.925L20.4698 19.9603L20.3884 20.0157L20.2551 20.0423L20.1151 20.0963L20.0051 20.0928L19.9024 20.1135L19.7644 20.0861L19.6191 20.0816C17.5911 19.611 15.6637 18.6169 13.4617 17.0222L12.7791 16.5082L12.7551 16.6462C12.6284 17.4916 12.5637 18.2856 12.5631 19.0296C12.6711 19.0903 12.7724 19.1689 12.8624 19.2636C13.6211 20.0716 14.6484 20.6623 16.0151 20.9983C16.6851 21.1623 17.0951 21.8397 16.9304 22.5103C16.7664 23.1803 16.0891 23.5903 15.4184 23.4257C14.6224 23.2303 13.8851 22.959 13.2104 22.6083C13.8571 24.1277 14.9991 25.291 16.6824 26.1104L19.2204 27.3457L15.4284 28.8638L14.0564 28.4298C21.8518 31.2771 28.0131 27.8024 28.7031 21.2437ZM31.1205 21.9184L31.1431 21.8904C31.1598 21.763 31.1751 21.635 31.1891 21.5057L31.1205 21.9184Z" fill="#4898A8"/>
<path fill-rule="evenodd" clip-rule="evenodd" d="M4.48694 33.5705C4.48694 33.5005 4.49229 33.4312 4.50359 33.3639C4.49224 33.2965 4.48694 33.2272 4.48694 33.1565V11.0169C4.48694 7.16414 7.29096 5.49811 10.0063 5.49878H32.9838C36.3638 5.49828 38.5039 8.21149 38.5039 11.0169V33.5705C38.5039 36.2586 36.8552 39.5013 32.5705 39.5013H10.0063C6.52295 39.5013 4.48694 36.2859 4.48694 33.5705ZM40.9872 33.5705C40.9872 33.5005 40.9926 33.4312 41.0039 33.3639C40.9925 33.2965 40.9872 33.2272 40.9872 33.1565V11.0169C40.9872 7.16414 43.7912 5.49811 46.5066 5.49878H69.4841C72.8641 5.49828 75.0041 8.21149 75.0041 11.0169V33.5705C75.0041 36.2586 73.3555 39.5013 69.0708 39.5013H46.5066C43.0232 39.5013 40.9872 36.2859 40.9872 33.5705ZM36.0038 33.5705V11.0169C36.0038 9.43084 34.8272 7.99882 32.9845 7.99882H10.0056C8.35763 7.99882 6.98696 8.8015 6.98696 11.0169V33.1565C6.98696 33.2272 6.98096 33.2965 6.96961 33.3639C6.98096 33.4312 6.98696 33.5005 6.98696 33.5705C6.98696 35.2739 8.29696 37.0013 10.0063 37.0013H32.5705C35.1325 37.0013 36.0038 35.3079 36.0038 33.5705ZM72.5041 33.5705V11.0169C72.5041 9.43084 71.3274 7.99882 69.4848 7.99882H46.5059C44.8579 7.99882 43.4872 8.8015 43.4872 11.0169V33.1565C43.4872 33.2272 43.4812 33.2965 43.4699 33.3639C43.4812 33.4312 43.4872 33.5005 43.4872 33.5705C43.4872 35.2739 44.7972 37.0013 46.5066 37.0013H69.0708C71.6328 37.0013 72.5041 35.3079 72.5041 33.5705Z" fill="#A9AFBC"/>
</svg>
