<svg width="80" height="44" viewBox="0 0 80 44" fill="none" xmlns="http://www.w3.org/2000/svg">
<path fill-rule="evenodd" clip-rule="evenodd" d="M43.4902 30.2505V6.75011C43.4902 6.06076 44.0501 5.50009 44.7401 5.50009H51.267C54.0255 5.60876 55.3001 6.72144 55.8707 8.3348L56.0434 8.96881H57.494V3.50272H24.986C24.296 3.50272 23.7361 2.94272 23.7361 2.2527C23.7361 1.56336 24.296 1.00269 24.986 1.00269H58.7439C59.4332 1.00269 59.9938 1.56336 59.9938 2.2527V10.2188C59.9938 10.9088 59.4332 11.4688 58.7439 11.4688H54.9928C54.3502 11.4688 53.8122 10.9822 53.7489 10.3428C53.6535 9.38348 53.4735 8.89681 53.2129 8.61147C52.9836 8.36013 52.4869 8.05013 51.2184 8.00013H45.99V30.2505C45.99 30.9405 45.4294 31.5005 44.7401 31.5005C44.0501 31.5005 43.4902 30.9405 43.4902 30.2505Z" fill="#4898A8"/>
<path fill-rule="evenodd" clip-rule="evenodd" d="M30.0176 41.4793L30.8502 37.7052C30.9762 37.1326 31.4842 36.7239 32.0708 36.7239C33.0141 36.7239 33.4021 36.4266 33.5994 36.1679C33.8441 35.8472 33.9907 35.3252 33.9907 34.6192V8.00012H28.7624C27.4925 8.05013 26.9958 8.3608 26.7665 8.61213C26.5052 8.89747 26.3252 9.38415 26.2292 10.3435C26.1652 10.9822 25.6272 11.4688 24.986 11.4688H21.2355C20.5456 11.4688 19.9856 10.9088 19.9856 10.2188V2.2527C19.9856 1.56336 20.5456 1.00269 21.2355 1.00269C21.9248 1.00269 22.4854 1.56336 22.4854 2.2527V8.96881H23.93L24.058 8.45413C24.2347 7.90946 24.5026 7.38278 24.9206 6.92544C25.7872 5.97743 27.0651 5.56542 28.7137 5.50009H35.2406C35.9299 5.50009 36.4906 6.06076 36.4906 6.75011V34.6192C36.4906 35.5912 36.3019 36.7466 35.5873 37.6839C35.0153 38.4339 34.1987 38.9253 33.1694 39.1239L33.0941 39.1346L32.7935 40.4979H47.1852L46.8839 39.1326L46.8019 39.1212C45.77 38.9172 44.962 38.4186 44.3981 37.6912C43.6868 36.7732 43.4901 35.6565 43.4901 34.7505C43.4901 34.0612 44.0501 33.5005 44.74 33.5005C45.4293 33.5005 45.99 34.0612 45.99 34.7505C45.99 35.3452 46.126 35.8398 46.3739 36.1592C46.5786 36.4232 46.9819 36.7239 47.9085 36.7239C48.4945 36.7239 49.0024 37.1319 49.1284 37.7045L49.9617 41.4786C50.1344 42.2579 49.5397 42.998 48.7418 42.998H31.2382C30.4396 42.998 29.8456 42.2586 30.0176 41.4793V41.4793Z" fill="#A9AFBC"/>
</svg>
