<svg width="80" height="44" viewBox="0 0 80 44" fill="none" xmlns="http://www.w3.org/2000/svg">
<g clip-path="url(#clip0)">
<path fill-rule="evenodd" clip-rule="evenodd" d="M32.9262 31.9106C32.6922 31.5366 32.5649 31.114 32.5162 30.68L32.5008 30.404L32.4922 30.316V13.2546C32.4922 12.6713 32.6155 12.086 32.9268 11.5873C33.3508 10.9086 34.0514 10.5126 34.8514 10.5C35.4367 10.4906 36 10.686 36.4986 10.9853L50.5044 19.408C51.0697 19.7473 51.549 20.224 51.803 20.8386C52.0456 21.428 52.0456 22.0686 51.8035 22.658C51.5501 23.274 51.0702 23.7513 50.5049 24.0913L36.4984 32.514C35.9985 32.814 35.4345 33.0086 34.8485 32.9986C34.0499 32.9846 33.35 32.5893 32.926 31.9106H32.9262ZM35.2113 30.3706L49.2165 21.948C49.3318 21.8786 49.4011 21.818 49.4411 21.7753L49.4598 21.75L49.4411 21.7246C49.4011 21.6812 49.3325 21.6206 49.2171 21.5513L35.2113 13.1286C35.158 13.0972 35.112 13.0733 35.072 13.0553L35.0114 13.0319L35 13.0972C34.9955 13.1406 34.992 13.1926 34.992 13.2546V30.2426C34.992 30.3053 34.9955 30.3579 35 30.4013L35.0114 30.4679L35.0727 30.4446C35.112 30.4266 35.1587 30.4026 35.2113 30.3706V30.3706Z" fill="#4898A8"/>
<path fill-rule="evenodd" clip-rule="evenodd" d="M24.4247 37.5593C15.8472 28.9707 15.8472 15.0307 24.4247 6.44199C33.0048 -2.14668 46.9313 -2.14668 55.5114 6.44199C63.2809 14.2207 64.1415 26.5087 57.6752 35.04C56.7053 36.32 55.6327 37.4947 54.4528 38.5513C45.816 46.1334 32.6595 45.802 24.4247 37.5593ZM52.9242 36.828C53.9801 35.882 54.9528 34.818 55.8387 33.6487C61.597 26.052 60.8537 15.0507 53.8815 8.07066C46.2013 0.381985 33.7348 0.381985 26.0546 8.07066C18.3757 15.7593 18.3757 28.242 26.0546 35.9307C33.4254 43.308 45.2034 43.606 52.9242 36.828Z" fill="#A9AFBC"/>
</g>
<defs>
<clipPath id="clip0">
<rect width="80" height="44" fill="white"/>
</clipPath>
</defs>
</svg>
