<svg width="156" height="104" viewBox="0 0 156 104" fill="none" xmlns="http://www.w3.org/2000/svg">
<path d="M0 8C0 3.58172 3.58172 0 8 0H148C152.418 0 156 3.58172 156 8V96C156 100.418 152.418 104 148 104H8C3.58172 104 0 100.418 0 96V8Z" fill="white"/>
<g clip-path="url(#clip0_706_16722)">
<path d="M27.3133 42.0098L30.5 46.2598C31.25 47.2598 32.75 47.2598 33.5 46.2598L36.6867 42.0098H42C44.7617 42.0098 47 39.7714 47 37.0098V22.0098C47 19.2481 44.7617 17.0098 42 17.0098H22C19.2383 17.0098 17 19.2481 17 22.0098V37.0098C17 39.7714 19.2383 42.0098 22 42.0098H27.3133Z" fill="url(#paint0_linear_706_16722)"/>
<path d="M32.0005 25.284C32.536 24.6795 33.463 24 34.8745 24C37.345 24 39.001 26.2335 39.001 28.3155C39.001 32.6655 33.385 36 32.0005 36C30.616 36 25 32.6655 25 28.3155C25 26.2335 26.656 24 29.1265 24C30.538 24 31.465 24.6795 32.0005 25.284Z" stroke="#E25336" stroke-width="2" stroke-linecap="round" stroke-linejoin="round"/>
</g>
<g clip-path="url(#clip1_706_16722)">
<path d="M67.3133 42.0098L70.5 46.2598C71.25 47.2598 72.75 47.2598 73.5 46.2598L76.6867 42.0098H82C84.7617 42.0098 87 39.7714 87 37.0098V22.0098C87 19.2481 84.7617 17.0098 82 17.0098H62C59.2383 17.0098 57 19.2481 57 22.0098V37.0098C57 39.7714 59.2383 42.0098 62 42.0098H67.3133Z" fill="url(#paint1_linear_706_16722)"/>
<path d="M74.6592 32.2823H69.3886M69.1182 31.9754C68.2504 31.3708 67.6 30.509 67.2613 29.5149C66.9225 28.5207 66.9129 27.4458 67.234 26.4459C67.555 25.446 68.19 24.5731 69.0469 23.9535C69.9038 23.334 70.9381 23 72 23C73.0619 23 74.0962 23.334 74.9531 23.9535C75.81 24.5731 76.445 25.446 76.766 26.4459C77.0871 27.4458 77.0775 28.5207 76.7388 29.5149C76.4 30.509 75.7496 31.3708 74.8818 31.9754C74.7671 32.0514 74.6726 32.1534 74.6063 32.273C74.5399 32.3927 74.5037 32.5263 74.5007 32.6626V34.9412C74.5007 35.4872 74.2811 36.0109 73.8903 36.397C73.4994 36.7831 72.9693 37 72.4166 37H71.5835C71.0307 37 70.5006 36.7831 70.1097 36.397C69.7189 36.0109 69.4993 35.4872 69.4993 34.9412V32.6682C69.4972 32.5309 69.4614 32.3962 69.395 32.2755C69.3286 32.1549 69.2336 32.0519 69.1182 31.9754Z" stroke="#F5A93D" stroke-width="2" stroke-linecap="round" stroke-linejoin="round"/>
</g>
<g clip-path="url(#clip2_706_16722)">
<path d="M107.313 42.0098L110.5 46.2598C111.25 47.2598 112.75 47.2598 113.5 46.2598L116.687 42.0098H122C124.762 42.0098 127 39.7714 127 37.0098V22.0098C127 19.2481 124.762 17.0098 122 17.0098H102C99.2383 17.0098 97 19.2481 97 22.0098V37.0098C97 39.7714 99.2383 42.0098 102 42.0098H107.313Z" fill="url(#paint2_linear_706_16722)"/>
<path d="M112.478 32.565V29.9564C113.166 29.9564 113.839 29.7524 114.411 29.3702C114.983 28.988 115.428 28.4448 115.692 27.8092C115.955 27.1737 116.024 26.4743 115.89 25.7996C115.755 25.1249 115.424 24.5052 114.938 24.0187C114.451 23.5323 113.831 23.201 113.157 23.0668C112.482 22.9326 111.783 23.0015 111.147 23.2648C110.512 23.528 109.968 23.9738 109.586 24.5458C109.204 25.1178 109 25.7903 109 26.4782" stroke="#4898A8" stroke-width="2" stroke-linecap="round" stroke-linejoin="round"/>
<path d="M112.478 36.8262C112.461 36.8262 112.444 36.8313 112.43 36.8408C112.416 36.8504 112.404 36.864 112.398 36.8798C112.391 36.8957 112.39 36.9132 112.393 36.9301C112.396 36.947 112.405 36.9625 112.417 36.9746C112.429 36.9868 112.444 36.9951 112.461 36.9984C112.478 37.0018 112.496 37 112.511 36.9935C112.527 36.9869 112.541 36.9757 112.55 36.9614C112.56 36.9471 112.565 36.9303 112.565 36.9131C112.565 36.8901 112.556 36.8679 112.54 36.8516C112.523 36.8353 112.501 36.8262 112.478 36.8262" stroke="#4898A8" stroke-width="2" stroke-linecap="round" stroke-linejoin="round"/>
</g>
<path d="M20.6133 68.7051C20.6133 70.0762 20.2656 71.1543 19.5703 71.9395C18.8789 72.7246 17.916 73.1172 16.6816 73.1172C15.4199 73.1172 14.4453 72.7324 13.7578 71.9629C13.0742 71.1895 12.7324 70.0996 12.7324 68.6934C12.7324 67.2988 13.0762 66.2188 13.7637 65.4531C14.4512 64.6836 15.4277 64.2988 16.6934 64.2988C17.9238 64.2988 18.8848 64.6895 19.5762 65.4707C20.2676 66.252 20.6133 67.3301 20.6133 68.7051ZM13.7871 68.7051C13.7871 69.8652 14.0332 70.7461 14.5254 71.3477C15.0215 71.9453 15.7402 72.2441 16.6816 72.2441C17.6309 72.2441 18.3477 71.9453 18.832 71.3477C19.3164 70.75 19.5586 69.8691 19.5586 68.7051C19.5586 67.5527 19.3164 66.6797 18.832 66.0859C18.3516 65.4883 17.6387 65.1895 16.6934 65.1895C15.7441 65.1895 15.0215 65.4902 14.5254 66.0918C14.0332 66.6895 13.7871 67.5605 13.7871 68.7051ZM24.9492 73.1172C24.0195 73.1172 23.2988 72.832 22.7871 72.2617C22.2793 71.6875 22.0254 70.877 22.0254 69.8301C22.0254 68.7559 22.2832 67.9258 22.7988 67.3398C23.3184 66.7539 24.0566 66.4609 25.0137 66.4609C25.3223 66.4609 25.6309 66.4941 25.9395 66.5605C26.248 66.627 26.4902 66.7051 26.666 66.7949L26.3672 67.6211C26.1523 67.5352 25.918 67.4648 25.6641 67.4102C25.4102 67.3516 25.1855 67.3223 24.9902 67.3223C23.6855 67.3223 23.0332 68.1543 23.0332 69.8184C23.0332 70.6074 23.1914 71.2129 23.5078 71.6348C23.8281 72.0566 24.3008 72.2676 24.9258 72.2676C25.4609 72.2676 26.0098 72.1523 26.5723 71.9219V72.7832C26.1426 73.0059 25.6016 73.1172 24.9492 73.1172ZM32.4316 67.4102H30.3457V73H29.373V67.4102H27.3105V66.5781H32.4316V67.4102ZM37.6523 73L37.459 72.0859H37.4121C37.0918 72.4883 36.7715 72.7617 36.4512 72.9062C36.1348 73.0469 35.7383 73.1172 35.2617 73.1172C34.625 73.1172 34.125 72.9531 33.7617 72.625C33.4023 72.2969 33.2227 71.8301 33.2227 71.2246C33.2227 69.9277 34.2598 69.248 36.334 69.1855L37.4238 69.1504V68.752C37.4238 68.248 37.3145 67.877 37.0957 67.6387C36.8809 67.3965 36.5352 67.2754 36.0586 67.2754C35.5234 67.2754 34.918 67.4395 34.2422 67.7676L33.9434 67.0234C34.2598 66.8516 34.6055 66.7168 34.9805 66.6191C35.3594 66.5215 35.7383 66.4727 36.1172 66.4727C36.8828 66.4727 37.4492 66.6426 37.8164 66.9824C38.1875 67.3223 38.373 67.8672 38.373 68.6172V73H37.6523ZM35.4551 72.3145C36.0605 72.3145 36.5352 72.1484 36.8789 71.8164C37.2266 71.4844 37.4004 71.0195 37.4004 70.4219V69.8418L36.4277 69.8828C35.6543 69.9102 35.0957 70.0312 34.752 70.2461C34.4121 70.457 34.2422 70.7871 34.2422 71.2363C34.2422 71.5879 34.3477 71.8555 34.5586 72.0391C34.7734 72.2227 35.0723 72.3145 35.4551 72.3145ZM45.5918 68.1895C45.5918 68.6074 45.4707 68.9258 45.2285 69.1445C44.9902 69.3594 44.6543 69.5039 44.2207 69.5781V69.6309C44.7676 69.7051 45.166 69.8652 45.416 70.1113C45.6699 70.3574 45.7969 70.6973 45.7969 71.1309C45.7969 71.7285 45.5762 72.1895 45.1348 72.5137C44.6973 72.8379 44.0566 73 43.2129 73H40.3828V66.5781H43.2012C44.7949 66.5781 45.5918 67.1152 45.5918 68.1895ZM44.8242 71.0664C44.8242 70.7188 44.6914 70.4668 44.4258 70.3105C44.1641 70.1504 43.7285 70.0703 43.1191 70.0703H41.3555V72.1855H43.1426C44.2637 72.1855 44.8242 71.8125 44.8242 71.0664ZM44.6426 68.2832C44.6426 67.9707 44.5215 67.75 44.2793 67.6211C44.041 67.4883 43.6777 67.4219 43.1895 67.4219H41.3555V69.2324H43.002C43.6035 69.2324 44.0273 69.1582 44.2734 69.0098C44.5195 68.8613 44.6426 68.6191 44.6426 68.2832ZM48.1289 66.5781V70.6504L48.0879 71.7168L48.0703 72.0508L51.5449 66.5781H52.7578V73H51.8496V69.0742L51.8672 68.3008L51.8965 67.5391L48.4277 73H47.2148V66.5781H48.1289ZM59.1504 67.4102H57.0645V73H56.0918V67.4102H54.0293V66.5781H59.1504V67.4102ZM61.3945 69.2324H63.375C65.0156 69.2324 65.8359 69.8359 65.8359 71.043C65.8359 71.6758 65.6211 72.1602 65.1914 72.4961C64.7656 72.832 64.1406 73 63.3164 73H60.4219V66.5781H61.3945V69.2324ZM61.3945 70.0703V72.1855H63.2695C63.7852 72.1855 64.1797 72.0957 64.4531 71.916C64.7266 71.7363 64.8633 71.4648 64.8633 71.1016C64.8633 70.7461 64.7363 70.4863 64.4824 70.3223C64.2324 70.1543 63.8184 70.0703 63.2402 70.0703H61.3945ZM76.1836 69.7832C76.1836 70.8301 75.9199 71.6484 75.3926 72.2383C74.8652 72.8242 74.1367 73.1172 73.207 73.1172C72.6328 73.1172 72.123 72.9824 71.6777 72.7129C71.2324 72.4434 70.8887 72.0566 70.6465 71.5527C70.4043 71.0488 70.2832 70.459 70.2832 69.7832C70.2832 68.7363 70.5449 67.9219 71.0684 67.3398C71.5918 66.7539 72.3184 66.4609 73.248 66.4609C74.1465 66.4609 74.8594 66.7598 75.3867 67.3574C75.918 67.9551 76.1836 68.7637 76.1836 69.7832ZM71.291 69.7832C71.291 70.6035 71.4551 71.2285 71.7832 71.6582C72.1113 72.0879 72.5938 72.3027 73.2305 72.3027C73.8672 72.3027 74.3496 72.0898 74.6777 71.6641C75.0098 71.2344 75.1758 70.6074 75.1758 69.7832C75.1758 68.9668 75.0098 68.3477 74.6777 67.9258C74.3496 67.5 73.8633 67.2871 73.2188 67.2871C72.582 67.2871 72.1016 67.4961 71.7773 67.9141C71.4531 68.332 71.291 68.9551 71.291 69.7832ZM82.2246 67.4102H80.1387V73H79.166V67.4102H77.1035V66.5781H82.2246V67.4102ZM84.7207 69.2441C85.9355 69.2441 86.543 68.9082 86.543 68.2363C86.543 67.6035 86.0508 67.2871 85.0664 67.2871C84.7656 67.2871 84.4922 67.3145 84.2461 67.3691C84 67.4238 83.6777 67.5332 83.2793 67.6973L82.9336 66.9062C83.5977 66.6094 84.3223 66.4609 85.1074 66.4609C85.8457 66.4609 86.4277 66.6133 86.8535 66.918C87.2793 67.2188 87.4922 67.6309 87.4922 68.1543C87.4922 68.873 87.0918 69.3438 86.291 69.5664V69.6133C86.7832 69.7578 87.1426 69.9648 87.3691 70.2344C87.5957 70.5 87.709 70.834 87.709 71.2363C87.709 71.8301 87.4688 72.293 86.9883 72.625C86.5117 72.9531 85.8516 73.1172 85.0078 73.1172C84.082 73.1172 83.3672 72.9785 82.8633 72.7012V71.8105C83.5781 72.1465 84.3008 72.3145 85.0312 72.3145C85.5938 72.3145 86.0176 72.2188 86.3027 72.0273C86.5918 71.832 86.7363 71.5527 86.7363 71.1895C86.7363 70.4434 86.1289 70.0703 84.9141 70.0703H84.0234V69.2441H84.7207ZM90.2695 69.2324H92.0215C92.8379 69.2324 93.4414 69.3848 93.832 69.6895C94.2266 69.9902 94.4238 70.4414 94.4238 71.043C94.4238 71.6875 94.2148 72.1758 93.7969 72.5078C93.3828 72.8359 92.7715 73 91.9629 73H89.2969V66.5781H90.2695V69.2324ZM96.4746 73H95.502V66.5781H96.4746V73ZM90.2695 70.0703V72.1855H91.916C92.9473 72.1855 93.4629 71.8242 93.4629 71.1016C93.4629 70.7422 93.3438 70.4805 93.1055 70.3164C92.8672 70.1523 92.4609 70.0703 91.8867 70.0703H90.2695ZM103.752 68.1895C103.752 68.6074 103.631 68.9258 103.389 69.1445C103.15 69.3594 102.814 69.5039 102.381 69.5781V69.6309C102.928 69.7051 103.326 69.8652 103.576 70.1113C103.83 70.3574 103.957 70.6973 103.957 71.1309C103.957 71.7285 103.736 72.1895 103.295 72.5137C102.857 72.8379 102.217 73 101.373 73H98.543V66.5781H101.361C102.955 66.5781 103.752 67.1152 103.752 68.1895ZM102.984 71.0664C102.984 70.7188 102.852 70.4668 102.586 70.3105C102.324 70.1504 101.889 70.0703 101.279 70.0703H99.5156V72.1855H101.303C102.424 72.1855 102.984 71.8125 102.984 71.0664ZM102.803 68.2832C102.803 67.9707 102.682 67.75 102.439 67.6211C102.201 67.4883 101.838 67.4219 101.35 67.4219H99.5156V69.2324H101.162C101.764 69.2324 102.188 69.1582 102.434 69.0098C102.68 68.8613 102.803 68.6191 102.803 68.2832ZM13.9453 82.5781V86.6504L13.9043 87.7168L13.8867 88.0508L17.3613 82.5781H18.5742V89H17.666V85.0742L17.6836 84.3008L17.7129 83.5391L14.2441 89H13.0312V82.5781H13.9453ZM25.4238 89H24.4395V83.4102H22.5117C22.4062 84.8008 22.2598 85.9043 22.0723 86.7207C21.8848 87.5371 21.6406 88.1348 21.3398 88.5137C21.043 88.8926 20.6641 89.082 20.2031 89.082C19.9922 89.082 19.8242 89.0586 19.6992 89.0117V88.291C19.7852 88.3145 19.8828 88.3262 19.9922 88.3262C20.4414 88.3262 20.7988 87.8516 21.0645 86.9023C21.3301 85.9531 21.5312 84.5117 21.668 82.5781H25.4238V89ZM28.4062 82.5781V86.6504L28.3652 87.7168L28.3477 88.0508L31.8223 82.5781H33.0352V89H32.127V85.0742L32.1445 84.3008L32.1738 83.5391L28.7051 89H27.4922V82.5781H28.4062ZM39.1875 89H38.2148V82.5781H43.6055V89H42.6211V83.4219H39.1875V89ZM51.2109 85.7832C51.2109 86.8301 50.9473 87.6484 50.4199 88.2383C49.8926 88.8242 49.1641 89.1172 48.2344 89.1172C47.6602 89.1172 47.1504 88.9824 46.7051 88.7129C46.2598 88.4434 45.916 88.0566 45.6738 87.5527C45.4316 87.0488 45.3105 86.459 45.3105 85.7832C45.3105 84.7363 45.5723 83.9219 46.0957 83.3398C46.6191 82.7539 47.3457 82.4609 48.2754 82.4609C49.1738 82.4609 49.8867 82.7598 50.4141 83.3574C50.9453 83.9551 51.2109 84.7637 51.2109 85.7832ZM46.3184 85.7832C46.3184 86.6035 46.4824 87.2285 46.8105 87.6582C47.1387 88.0879 47.6211 88.3027 48.2578 88.3027C48.8945 88.3027 49.377 88.0898 49.7051 87.6641C50.0371 87.2344 50.2031 86.6074 50.2031 85.7832C50.2031 84.9668 50.0371 84.3477 49.7051 83.9258C49.377 83.5 48.8906 83.2871 48.2461 83.2871C47.6094 83.2871 47.1289 83.4961 46.8047 83.9141C46.4805 84.332 46.3184 84.9551 46.3184 85.7832ZM58.5 91.2207H57.5566V89H53.0684V91.2207H52.1309V88.1621H52.6348C53.1582 87.4512 53.5684 86.6172 53.8652 85.6602C54.1621 84.7031 54.3164 83.6758 54.3281 82.5781H57.5801V88.1621H58.5V91.2207ZM56.6426 88.1621V83.3457H55.2012C55.1504 84.2129 54.9824 85.0918 54.6973 85.9824C54.416 86.8691 54.0645 87.5957 53.6426 88.1621H56.6426ZM62.502 89.1172C61.5527 89.1172 60.8027 88.8281 60.252 88.25C59.7051 87.6719 59.4316 86.8691 59.4316 85.8418C59.4316 84.8066 59.6855 83.9844 60.1934 83.375C60.7051 82.7656 61.3906 82.4609 62.25 82.4609C63.0547 82.4609 63.6914 82.7266 64.1602 83.2578C64.6289 83.7852 64.8633 84.4824 64.8633 85.3496V85.9648H60.4395C60.459 86.7188 60.6484 87.291 61.0078 87.6816C61.3711 88.0723 61.8809 88.2676 62.5371 88.2676C63.2285 88.2676 63.9121 88.123 64.5879 87.834V88.7012C64.2441 88.8496 63.918 88.9551 63.6094 89.0176C63.3047 89.084 62.9355 89.1172 62.502 89.1172ZM62.2383 83.2754C61.7227 83.2754 61.3105 83.4434 61.002 83.7793C60.6973 84.1152 60.5176 84.5801 60.4629 85.1738H63.8203C63.8203 84.5605 63.6836 84.0918 63.4102 83.7676C63.1367 83.4395 62.7461 83.2754 62.2383 83.2754ZM71.3145 89H70.3301V83.4102H68.4023C68.2969 84.8008 68.1504 85.9043 67.9629 86.7207C67.7754 87.5371 67.5312 88.1348 67.2305 88.5137C66.9336 88.8926 66.5547 89.082 66.0938 89.082C65.8828 89.082 65.7148 89.0586 65.5898 89.0117V88.291C65.6758 88.3145 65.7734 88.3262 65.8828 88.3262C66.332 88.3262 66.6895 87.8516 66.9551 86.9023C67.2207 85.9531 67.4219 84.5117 67.5586 82.5781H71.3145V89ZM74.2969 82.5781V86.6504L74.2559 87.7168L74.2383 88.0508L77.7129 82.5781H78.9258V89H78.0176V85.0742L78.0352 84.3008L78.0645 83.5391L74.5957 89H73.3828V82.5781H74.2969ZM85.3184 83.4102H83.2324V89H82.2598V83.4102H80.1973V82.5781H85.3184V83.4102ZM87.5625 85.2324H89.543C91.1836 85.2324 92.0039 85.8359 92.0039 87.043C92.0039 87.6758 91.7891 88.1602 91.3594 88.4961C90.9336 88.832 90.3086 89 89.4844 89H86.5898V82.5781H87.5625V85.2324ZM87.5625 86.0703V88.1855H89.4375C89.9531 88.1855 90.3477 88.0957 90.6211 87.916C90.8945 87.7363 91.0312 87.4648 91.0312 87.1016C91.0312 86.7461 90.9043 86.4863 90.6504 86.3223C90.4004 86.1543 89.9863 86.0703 89.4082 86.0703H87.5625ZM96.2578 89.1172C95.3281 89.1172 94.6074 88.832 94.0957 88.2617C93.5879 87.6875 93.334 86.877 93.334 85.8301C93.334 84.7559 93.5918 83.9258 94.1074 83.3398C94.627 82.7539 95.3652 82.4609 96.3223 82.4609C96.6309 82.4609 96.9395 82.4941 97.248 82.5605C97.5566 82.627 97.7988 82.7051 97.9746 82.7949L97.6758 83.6211C97.4609 83.5352 97.2266 83.4648 96.9727 83.4102C96.7188 83.3516 96.4941 83.3223 96.2988 83.3223C94.9941 83.3223 94.3418 84.1543 94.3418 85.8184C94.3418 86.6074 94.5 87.2129 94.8164 87.6348C95.1367 88.0566 95.6094 88.2676 96.2344 88.2676C96.7695 88.2676 97.3184 88.1523 97.8809 87.9219V88.7832C97.4512 89.0059 96.9102 89.1172 96.2578 89.1172ZM99.7324 89H98.5957L100.441 86.2871C99.9453 86.1777 99.5645 85.9668 99.2988 85.6543C99.0371 85.3379 98.9062 84.9414 98.9062 84.4648C98.9062 83.8789 99.1035 83.418 99.498 83.082C99.8926 82.7461 100.443 82.5781 101.15 82.5781H104.01V89H103.037V86.4336H101.414L99.7324 89ZM99.8555 84.4766C99.8555 85.2188 100.395 85.5898 101.473 85.5898H103.037V83.4219H101.273C100.328 83.4219 99.8555 83.7734 99.8555 84.4766ZM110.109 82.5781V86.6504L110.068 87.7168L110.051 88.0508L113.525 82.5781H114.738V89H113.83V85.0742L113.848 84.3008L113.877 83.5391L110.408 89H109.195V82.5781H110.109ZM122.379 91.2207H121.436V89H116.947V91.2207H116.01V88.1621H116.514C117.037 87.4512 117.447 86.6172 117.744 85.6602C118.041 84.7031 118.195 83.6758 118.207 82.5781H121.459V88.1621H122.379V91.2207ZM120.521 88.1621V83.3457H119.08C119.029 84.2129 118.861 85.0918 118.576 85.9824C118.295 86.8691 117.943 87.5957 117.521 88.1621H120.521ZM126.381 89.1172C125.432 89.1172 124.682 88.8281 124.131 88.25C123.584 87.6719 123.311 86.8691 123.311 85.8418C123.311 84.8066 123.564 83.9844 124.072 83.375C124.584 82.7656 125.27 82.4609 126.129 82.4609C126.934 82.4609 127.57 82.7266 128.039 83.2578C128.508 83.7852 128.742 84.4824 128.742 85.3496V85.9648H124.318C124.338 86.7188 124.527 87.291 124.887 87.6816C125.25 88.0723 125.76 88.2676 126.416 88.2676C127.107 88.2676 127.791 88.123 128.467 87.834V88.7012C128.123 88.8496 127.797 88.9551 127.488 89.0176C127.184 89.084 126.814 89.1172 126.381 89.1172ZM126.117 83.2754C125.602 83.2754 125.189 83.4434 124.881 83.7793C124.576 84.1152 124.396 84.5801 124.342 85.1738H127.699C127.699 84.5605 127.562 84.0918 127.289 83.7676C127.016 83.4395 126.625 83.2754 126.117 83.2754ZM133.119 89.1172C132.17 89.1172 131.42 88.8281 130.869 88.25C130.322 87.6719 130.049 86.8691 130.049 85.8418C130.049 84.8066 130.303 83.9844 130.811 83.375C131.322 82.7656 132.008 82.4609 132.867 82.4609C133.672 82.4609 134.309 82.7266 134.777 83.2578C135.246 83.7852 135.48 84.4824 135.48 85.3496V85.9648H131.057C131.076 86.7188 131.266 87.291 131.625 87.6816C131.988 88.0723 132.498 88.2676 133.154 88.2676C133.846 88.2676 134.529 88.123 135.205 87.834V88.7012C134.861 88.8496 134.535 88.9551 134.227 89.0176C133.922 89.084 133.553 89.1172 133.119 89.1172ZM132.855 83.2754C132.34 83.2754 131.928 83.4434 131.619 83.7793C131.314 84.1152 131.135 84.5801 131.08 85.1738H134.438C134.438 84.5605 134.301 84.0918 134.027 83.7676C133.754 83.4395 133.363 83.2754 132.855 83.2754ZM138.059 82.5781V86.6504L138.018 87.7168L138 88.0508L141.475 82.5781H142.688V89H141.779V85.0742L141.797 84.3008L141.826 83.5391L138.357 89H137.145V82.5781H138.059ZM139.893 81.7285C139.17 81.7285 138.643 81.5898 138.311 81.3125C137.979 81.0312 137.793 80.5703 137.754 79.9297H138.668C138.703 80.3359 138.809 80.6191 138.984 80.7793C139.164 80.9395 139.475 81.0195 139.916 81.0195C140.318 81.0195 140.615 80.9336 140.807 80.7617C141.002 80.5898 141.121 80.3125 141.164 79.9297H142.084C142.037 80.5469 141.84 81.002 141.492 81.2949C141.145 81.584 140.611 81.7285 139.893 81.7285Z" fill="#16181D"/>
<path d="M8 1H148V-1H8V1ZM155 8V96H157V8H155ZM148 103H8V105H148V103ZM1 96V8H-1V96H1ZM8 103C4.13401 103 1 99.866 1 96H-1C-1 100.971 3.02944 105 8 105V103ZM155 96C155 99.866 151.866 103 148 103V105C152.971 105 157 100.971 157 96H155ZM148 1C151.866 1 155 4.13401 155 8H157C157 3.02944 152.971 -1 148 -1V1ZM8 -1C3.02944 -1 -1 3.02944 -1 8H1C1 4.13401 4.13401 1 8 1V-1Z" fill="#EDEEF0"/>
<defs>
<linearGradient id="paint0_linear_706_16722" x1="32" y1="17.0098" x2="32" y2="47.0098" gradientUnits="userSpaceOnUse">
<stop stop-color="white" stop-opacity="0"/>
<stop offset="0.578125" stop-color="#FFE5E0"/>
</linearGradient>
<linearGradient id="paint1_linear_706_16722" x1="72" y1="17.0098" x2="72" y2="47.0098" gradientUnits="userSpaceOnUse">
<stop stop-color="white" stop-opacity="0"/>
<stop offset="0.651042" stop-color="#FFEED6"/>
</linearGradient>
<linearGradient id="paint2_linear_706_16722" x1="112" y1="17.0098" x2="112" y2="47.0098" gradientUnits="userSpaceOnUse">
<stop stop-color="white" stop-opacity="0"/>
<stop offset="0.739583" stop-color="#D7F0F5"/>
</linearGradient>
<clipPath id="clip0_706_16722">
<rect width="40" height="40" fill="white" transform="translate(12 12)"/>
</clipPath>
<clipPath id="clip1_706_16722">
<rect width="40" height="40" fill="white" transform="translate(52 12)"/>
</clipPath>
<clipPath id="clip2_706_16722">
<rect width="40" height="40" fill="white" transform="translate(92 12)"/>
</clipPath>
</defs>
</svg>
