<?xml version="1.0" encoding="utf-8"?>
<!-- Generator: Adobe Illustrator 19.0.0, SVG Export Plug-In . SVG Version: 6.00 Build 0)  -->
<svg version="1.1" id="Слой_1" xmlns="http://www.w3.org/2000/svg" xmlns:xlink="http://www.w3.org/1999/xlink" x="0px" y="0px"
	 viewBox="-259 383.7 75.2 75.2" style="enable-background:new -259 383.7 75.2 75.2;" xml:space="preserve">
<style type="text/css">
	.st0{fill:url(#SVGID_1_);}
</style>
<g id="Слой_2">
	<g id="Слой_1-2">
		<rect x="-200.2" y="416.3" width="3.8" height="11.2"/>
		<rect x="-246.4" y="416.3" width="3.7" height="11.2"/>
		<rect x="-218.9" y="416.3" width="3.8" height="11.2"/>
		
			<linearGradient id="SVGID_1_" gradientUnits="userSpaceOnUse" x1="-221.4" y1="459.58" x2="-221.4" y2="411.5795" gradientTransform="matrix(1 0 0 -1 0 843.27)">
			<stop  offset="0" style="stop-color:#242424"/>
			<stop  offset="1" style="stop-color:#242424"/>
		</linearGradient>
		<path class="st0" d="M-183.8,383.7H-259v75.2h75.2V383.7z M-236.4,432.5h-16.2v-21.2h10v-8.7h6.2L-236.4,432.5z M-227.6,432.5
			h-6.2v-21.2h6.2L-227.6,432.5z M-227.6,408.8h-6.2v-6.2h6.2L-227.6,408.8z M-208.9,440h-16.2v-5h10v-2.5h-10v-21.2h16.2V440z
			 M-190.2,440h-16.2v-5h10v-2.5h-10v-21.2h16.2V440z"/>
	</g>
</g>
</svg>
