<?xml version="1.0" standalone="no"?>
<!DOCTYPE svg PUBLIC "-//W3C//DTD SVG 20010904//EN"
        "http://www.w3.org/TR/2001/REC-SVG-20010904/DTD/svg10.dtd">
<svg version="1.0" xmlns="http://www.w3.org/2000/svg" viewBox="0 0 1024.000000 1024.000000">

    <g transform="translate(0.000000,1024.000000) scale(0.10000,-0.10000)"
       fill="#e0601e" stroke="none">
        <path d="M0 5120 l0 -5120 5120 0 5120 0 0 5120 0 5120 -5120 0 -5120 0 0
-5120z m2638 2140 c132 -22 237 -86 298 -181 51 -81 68 -154 67 -294 0 -154 7
-123 -163 -770 -139 -530 -158 -637 -130 -706 49 -117 362 -82 687 76 85 42
114 61 118 78 3 12 64 351 136 752 117 656 130 738 125 810 -3 44 -8 94 -12
112 -8 43 18 67 108 95 52 16 99 22 163 22 81 1 97 -3 150 -29 78 -39 105 -87
105 -188 0 -44 -74 -490 -210 -1267 -115 -659 -210 -1204 -210 -1212 0 -12 31
-17 143 -27 271 -23 615 -75 1182 -177 836 -151 1227 -197 1660 -197 500 0
840 70 1188 244 64 33 128 59 141 59 48 0 150 -134 180 -239 40 -138 7 -233
-109 -313 -202 -137 -484 -232 -805 -269 -150 -18 -552 -15 -750 5 -370 37
-718 98 -1475 260 -684 146 -908 188 -1200 221 -161 19 -224 19 -229 3 -2 -7
-14 -60 -26 -118 -84 -397 -275 -723 -517 -881 -130 -85 -293 -131 -463 -132
-131 -1 -202 14 -306 64 -141 67 -233 177 -280 335 -23 76 -23 233 0 327 53
222 209 445 399 570 163 108 476 220 679 243 48 5 61 11 68 28 9 21 60 287 60
312 0 7 -32 -6 -77 -32 -131 -75 -305 -130 -497 -159 -407 -60 -646 65 -703
368 -12 66 -13 97 -4 166 6 46 87 375 181 730 93 356 170 665 170 686 0 57
-31 102 -74 110 -71 14 -211 -50 -311 -141 -27 -24 -58 -44 -69 -44 -32 0
-136 117 -175 196 -42 85 -50 147 -26 199 26 54 122 126 260 195 201 100 386
137 553 110z m4564 -781 c96 -21 165 -66 212 -141 l17 -26 82 43 c188 100 338
141 476 132 108 -7 168 -28 223 -77 89 -77 124 -206 107 -390 -5 -47 -49 -317
-99 -602 -49 -284 -90 -532 -90 -551 0 -20 5 -58 11 -85 18 -74 8 -95 -52
-120 -164 -68 -355 -49 -425 44 -26 33 -29 47 -32 123 -3 72 10 162 77 551 45
256 81 478 81 493 0 51 -27 97 -67 113 -46 20 -94 13 -176 -25 -111 -50 -95
-4 -191 -566 -47 -275 -86 -517 -86 -537 0 -21 5 -57 12 -81 18 -68 7 -91 -54
-116 -196 -78 -408 -38 -449 86 -22 66 -10 170 70 637 45 256 81 477 81 491 0
50 -27 95 -67 111 -50 21 -99 12 -198 -36 l-81 -39 -87 -503 c-48 -277 -88
-521 -87 -542 0 -22 5 -66 12 -97 11 -52 10 -60 -6 -78 -57 -63 -314 -91 -402
-44 -86 46 -121 120 -110 232 4 36 57 349 118 695 107 612 110 633 99 699 -16
95 -14 114 12 132 45 32 149 56 244 57 77 0 100 -4 147 -25 37 -17 62 -37 74
-56 9 -17 20 -31 24 -31 5 0 54 21 109 46 189 84 339 111 471 83z m-2402 -31
c19 -6 50 -21 68 -35 89 -66 88 -129 -6 -653 -39 -217 -74 -416 -77 -441 -9
-58 8 -119 41 -150 23 -21 34 -24 107 -24 70 1 93 6 160 34 56 24 78 39 82 54
3 12 42 227 86 477 84 470 88 512 63 637 -8 43 18 67 102 93 79 24 214 29 284
10 85 -23 140 -104 140 -208 0 -24 -49 -320 -110 -658 -60 -338 -112 -642
-116 -677 -4 -43 -1 -81 10 -125 22 -84 12 -101 -80 -131 -194 -63 -386 -20
-424 95 -7 20 -17 33 -24 30 -80 -35 -229 -88 -300 -106 -173 -43 -330 -18
-429 69 -54 48 -102 152 -117 252 -16 108 -11 148 90 720 44 249 80 474 80
500 0 26 -5 70 -12 98 -16 72 -4 94 69 121 95 36 227 43 313 18z"/>
        <path d="M3235 4098 c-214 -46 -390 -159 -456 -293 -81 -165 -26 -306 113
-291 128 14 229 126 314 352 26 71 76 236 72 239 -2 1 -21 -2 -43 -7z"/>
    </g>
</svg>
