<?xml version="1.0" encoding="utf-8"?>
<!-- Generator: Adobe Illustrator 19.0.0, SVG Export Plug-In . SVG Version: 6.00 Build 0)  -->
<svg version="1.1" id="Capa_1" xmlns="http://www.w3.org/2000/svg" xmlns:xlink="http://www.w3.org/1999/xlink" x="0px" y="0px"
	 viewBox="-250 373.9 94 94" style="enable-background:new -250 373.9 94 94;" xml:space="preserve">
<style type="text/css">
	.st0{fill:#E87941;}
	.st1{fill:url(#SVGID_1_);}
</style>
<g>
	<g>
		<path class="st0" d="M-202.9,411.5c5.2,0,9.4-4.2,9.4-9.5c0-5.3-4.2-9.4-9.5-9.5c-5.3,0-9.5,4.3-9.5,9.6
			C-212.4,407.3-208.2,411.5-202.9,411.5z"/>
		
			<linearGradient id="SVGID_1_" gradientUnits="userSpaceOnUse" x1="-203" y1="467.78" x2="-203" y2="419.7795" gradientTransform="matrix(1 0 0 -1 0 841.67)">
			<stop  offset="0" style="stop-color:#E87941"/>
			<stop  offset="1" style="stop-color:#E87941"/>
		</linearGradient>
		<path class="st1" d="M-156,373.9h-94v94h94V373.9z M-202.9,382.7c10.7,0,19.3,8.8,19.2,19.6c-0.1,10.6-8.8,19.1-19.5,19.1
			c-10.6,0-19.2-8.8-19.2-19.4C-222.3,391.3-213.6,382.6-202.9,382.7z M-181.2,429c-2.4,2.4-5.2,4.2-8.4,5.4c-3,1.2-6.3,1.7-9.5,2.1
			c0.5,0.5,0.7,0.8,1,1.1c4.4,4.4,8.8,8.8,13.2,13.3c1.5,1.5,1.8,3.4,1,5.1c-0.9,1.9-2.9,3.2-4.9,3.1c-1.3-0.1-2.2-0.7-3.1-1.6
			c-3.3-3.3-6.7-6.6-10-10c-0.9-1-1.4-0.8-2.2,0.1c-3.3,3.4-6.7,6.8-10.2,10.2c-1.5,1.5-3.4,1.8-5.1,0.9c-1.9-0.9-3.1-2.8-3-4.8
			c0.1-1.3,0.7-2.3,1.6-3.2c4.4-4.4,8.7-8.7,13.1-13.1c0.3-0.3,0.6-0.6,1-1c-5.9-0.6-11.3-2.1-15.8-5.7c-1.6-1.3-3.4-2.4-3.3-5.3
			c0,0,0,0,0,0c0.8-3.9,3.9-5.3,7-3.8c0.5,0.2,0.9,0.5,1.3,0.8c8.5,5.9,20.2,6,28.8,0.3c0.8-0.6,1.8-1.2,2.8-1.4c2-0.5,3.9,0.2,5,2
			C-179.7,425.4-179.7,427.4-181.2,429z"/>
	</g>
</g>
</svg>
