<?xml version="1.0" encoding="utf-8"?>
<!DOCTYPE svg PUBLIC "-//W3C//DTD SVG 1.1//EN" "http://www.w3.org/Graphics/SVG/1.1/DTD/svg11.dtd">
<svg xmlns="http://www.w3.org/2000/svg" viewBox="-100 -100 1200 1200">
    <g><path d="M881.1,735.9h-72.6v-72.6h36.3v-72.6H155.2v72.6h36.3v72.6h-72.6c-20,0-36.3-16.3-36.3-36.3v-363c0-35.1,145.2-72.6,399.3-72.6c13.5,0,25.4,0,36.3,0c251.8,0,399.3,36.7,399.3,72.6v363C917.4,719.7,901.2,735.9,881.1,735.9z M790.4,373c-30.1,0-54.4,24.4-54.4,54.4c0,30.1,24.4,54.4,54.4,54.4c30.1,0,54.4-24.4,54.4-54.4C844.8,397.3,820.4,373,790.4,373z M227.8,46.3c0-20,16.3-36.3,36.3-36.3h471.9c20,0,36.3,16.3,36.3,36.3v181.5H227.8V46.3L227.8,46.3z M772.2,953.7c0,20-16.3,36.3-36.3,36.3H264.1c-20,0-36.3-16.3-36.3-36.3V627h544.4V953.7L772.2,953.7z M699.6,663.3H300.4v36.3h399.3V663.3z M699.6,735.9H300.4v36.3h399.3V735.9L699.6,735.9z M699.6,808.5H300.4v36.3h399.3V808.5L699.6,808.5z M699.6,881.1H300.4v36.3h399.3V881.1z"/></g>
</svg>