<svg width="28" height="28" viewBox="0 0 28 28" fill="none" xmlns="http://www.w3.org/2000/svg">
<path d="M10.1376 23.6249H5.25C5.01794 23.6249 4.79538 23.5327 4.63128 23.3686C4.46719 23.2045 4.375 22.9819 4.375 22.7499V17.8623C4.375 17.7474 4.39763 17.6336 4.44161 17.5275C4.48558 17.4213 4.55003 17.3248 4.63128 17.2436L17.7563 4.11859C17.9204 3.95449 18.1429 3.8623 18.375 3.8623C18.6071 3.8623 18.8296 3.95449 18.9937 4.11859L23.8813 9.00615C24.0454 9.17024 24.1376 9.3928 24.1376 9.62487C24.1376 9.85693 24.0454 10.0795 23.8813 10.2436L10.7563 23.3686C10.675 23.4498 10.5786 23.5143 10.4724 23.5583C10.3663 23.6022 10.2525 23.6249 10.1376 23.6249Z" stroke="currentColor" stroke-width="1.5" stroke-linecap="round" stroke-linejoin="round"/>
<path d="M14.875 7L21 13.125" stroke="currentColor" stroke-width="1.5" stroke-linecap="round" stroke-linejoin="round"/>
<path d="M10.4441 23.5691L4.43066 17.5557" stroke="currentColor" stroke-width="1.5" stroke-linecap="round" stroke-linejoin="round"/>
</svg>
