<svg width="28" height="28" viewBox="0 0 28 28" fill="none" xmlns="http://www.w3.org/2000/svg">
<path d="M24.9537 13.2531L9.20628 3.62936C9.07364 3.5483 8.9218 3.50404 8.76638 3.50113C8.61096 3.49822 8.45757 3.53677 8.32199 3.6128C8.18641 3.68884 8.07354 3.79962 7.99497 3.93376C7.91641 4.06789 7.875 4.22053 7.875 4.37598V23.6235C7.875 23.7789 7.91641 23.9316 7.99497 24.0657C8.07354 24.1998 8.18641 24.3106 8.32199 24.3867C8.45757 24.4627 8.61096 24.5012 8.76638 24.4983C8.9218 24.4954 9.07364 24.4512 9.20628 24.3701L24.9537 14.7463C25.0816 14.6682 25.1873 14.5585 25.2606 14.4277C25.3339 14.297 25.3724 14.1496 25.3724 13.9997C25.3724 13.8498 25.3339 13.7025 25.2606 13.5717C25.1873 13.441 25.0816 13.3313 24.9537 13.2531Z" stroke="currentColor" stroke-width="2" stroke-linecap="round" stroke-linejoin="round"/>
</svg>
