<svg width="28" height="28" viewBox="0 0 28 28" fill="none" xmlns="http://www.w3.org/2000/svg">
<path fill-rule="evenodd" clip-rule="evenodd" d="M13.6666 0.666992C13.1143 0.666992 12.6666 1.11471 12.6666 1.66699V12.667H1.66663C1.11434 12.667 0.666626 13.1147 0.666626 13.667V14.3337C0.666626 14.8859 1.11434 15.3337 1.66663 15.3337H12.6666V26.3337C12.6666 26.8859 13.1143 27.3337 13.6666 27.3337H14.3333C14.8856 27.3337 15.3333 26.8859 15.3333 26.3337V15.3337H26.3333C26.8856 15.3337 27.3333 14.8859 27.3333 14.3337V13.667C27.3333 13.1147 26.8856 12.667 26.3333 12.667H15.3333V1.66699C15.3333 1.11471 14.8856 0.666992 14.3333 0.666992H13.6666Z" fill="currentColor"/>
</svg>
