<svg width="24" height="24" viewBox="0 0 24 24" fill="none" xmlns="http://www.w3.org/2000/svg">
<path d="M20.25 8.56066V19.5C20.25 19.6989 20.171 19.8897 20.0303 20.0303C19.8897 20.171 19.6989 20.25 19.5 20.25H4.5C4.30109 20.25 4.11032 20.171 3.96967 20.0303C3.82902 19.8897 3.75 19.6989 3.75 19.5V4.5C3.75 4.30109 3.82902 4.11032 3.96967 3.96967C4.11032 3.82902 4.30109 3.75 4.5 3.75H15.4393C15.5378 3.75 15.6354 3.7694 15.7264 3.80709C15.8173 3.84478 15.9 3.90003 15.9697 3.96967L20.0303 8.03033C20.1 8.09997 20.1552 8.18265 20.1929 8.27365C20.2306 8.36464 20.25 8.46217 20.25 8.56066Z" stroke="currentColor" stroke-width="2" stroke-linecap="round" stroke-linejoin="round"/>
<path d="M12 17.25C13.4497 17.25 14.625 16.0747 14.625 14.625C14.625 13.1753 13.4497 12 12 12C10.5503 12 9.375 13.1753 9.375 14.625C9.375 16.0747 10.5503 17.25 12 17.25Z" stroke="currentColor" stroke-width="2" stroke-linecap="round" stroke-linejoin="round"/>
<path d="M15 9H9V3.75" stroke="currentColor" stroke-width="2" stroke-linecap="round" stroke-linejoin="round"/>
</svg>
