<svg width="28" height="28" viewBox="0 0 28 28" fill="none" xmlns="http://www.w3.org/2000/svg">
<path d="M5.72048 10.0186C5.91736 9.60299 6.14705 9.20924 6.40955 8.82643L6.3658 5.98268C6.3658 5.72018 6.47517 5.46862 6.68298 5.29362C7.70017 4.44049 8.85955 3.75143 10.1392 3.29205C10.3908 3.20455 10.6642 3.22643 10.883 3.36862L13.322 4.83424C13.7814 4.80143 14.2408 4.80143 14.7002 4.83424L17.1392 3.36862C17.3689 3.23737 17.6424 3.20455 17.8939 3.29205C19.1408 3.74049 20.3111 4.40768 21.3502 5.28268C21.547 5.44674 21.6674 5.70924 21.6564 5.97174L21.6127 8.81549C21.8752 9.1983 22.1049 9.59205 22.3017 10.0077L24.7845 11.3858C25.0142 11.5171 25.1783 11.7358 25.222 11.9983C25.4517 13.2999 25.4627 14.6561 25.222 15.9796C25.1783 16.2421 25.0142 16.4608 24.7845 16.5921L22.3017 17.9702C22.1049 18.3858 21.8752 18.7796 21.6127 19.1624L21.6564 22.0061C21.6564 22.2686 21.547 22.5202 21.3392 22.6952C20.322 23.5483 19.1627 24.2374 17.883 24.6967C17.6314 24.7842 17.358 24.7624 17.1392 24.6202L14.7002 23.1546C14.2408 23.1874 13.7814 23.1874 13.322 23.1546L10.883 24.6202C10.6533 24.7514 10.3799 24.7842 10.1283 24.6967C8.88142 24.2483 7.71111 23.5811 6.67205 22.7061C6.47517 22.5421 6.35486 22.2796 6.3658 22.0171L6.40955 19.1733C6.14705 18.7905 5.91736 18.3967 5.72048 17.9811L3.23767 16.603C3.00798 16.4717 2.84392 16.253 2.80017 15.9905C2.57048 14.6889 2.55955 13.3327 2.80017 12.0092C2.84392 11.7467 3.00798 11.528 3.23767 11.3967L5.72048 10.0186Z" stroke="currentColor" stroke-width="2" stroke-miterlimit="10" stroke-linecap="round" stroke-linejoin="round"/>
<path d="M14 19.25C16.8995 19.25 19.25 16.8995 19.25 14C19.25 11.1005 16.8995 8.75 14 8.75C11.1005 8.75 8.75 11.1005 8.75 14C8.75 16.8995 11.1005 19.25 14 19.25Z" stroke="currentColor" stroke-width="2" stroke-miterlimit="10" stroke-linecap="round" stroke-linejoin="round"/>
</svg>
