<?xml version="1.0" encoding="utf-8"?>
<!-- Generator: Adobe Illustrator 16.0.2, SVG Export Plug-In . SVG Version: 6.00 Build 0)  -->
<!DOCTYPE svg PUBLIC "-//W3C//DTD SVG 1.1//EN" "http://www.w3.org/Graphics/SVG/1.1/DTD/svg11.dtd">
<svg version="1.1" id="Layer_1" xmlns="http://www.w3.org/2000/svg" xmlns:xlink="http://www.w3.org/1999/xlink" x="0px" y="0px"
	 width="830.555px" height="297.222px" viewBox="0 0 830.555 297.222" enable-background="new 0 0 830.555 297.222"
	 xml:space="preserve">
<g>
	<g>
		<path d="M82.36,158.911V95.953h17.01v49.222h24.243v13.736H82.36z"/>
	</g>
	<g>
		<path d="M171.068,158.911H133.69V95.953h37.378v13.652H150.7v9.903h18.862v13.651H150.7v11.884h20.368V158.911z"/>
	</g>
	<g>
		<path d="M222.745,158.911l-3.1-11.799h-20.455l-3.186,11.799h-18.689l20.541-63.216h22.692l20.8,63.216H222.745z M216.113,133.16
			l-2.713-10.336c-0.632-2.296-1.4-5.267-2.304-8.913c-0.905-3.645-1.501-6.258-1.788-7.838c-0.258,1.464-0.769,3.875-1.529,7.235
			c-0.76,3.358-2.448,9.977-5.06,19.852H216.113z"/>
	</g>
	<g>
		<path d="M301.591,126.097c0,10.508-2.893,18.604-8.677,24.288c-5.785,5.684-13.917,8.526-24.396,8.526h-20.368V95.953h21.791
			c10.104,0,17.906,2.585,23.402,7.752C298.841,108.872,301.591,116.337,301.591,126.097z M283.936,126.699
			c0-5.77-1.142-10.046-3.425-12.832c-2.281-2.784-5.749-4.177-10.399-4.177h-4.952v35.269h3.791c5.166,0,8.956-1.5,11.367-4.5
			C282.73,137.458,283.936,132.872,283.936,126.699z"/>
	</g>
</g>
<g>
	<path d="M361.8,138.646h44.722v55.851c-12.145,4.158-25.492,6.235-40.046,6.235c-15.97,0-28.314-4.63-37.032-13.892
		c-8.716-9.26-13.076-22.467-13.076-39.619c0-16.727,4.771-29.744,14.316-39.052s22.916-13.963,40.117-13.963
		c6.52,0,12.674,0.615,18.463,1.844s10.833,2.788,15.131,4.677l-8.858,21.971c-7.466-3.685-15.664-5.528-24.593-5.528
		c-8.176,0-14.495,2.658-18.959,7.973c-4.467,5.315-6.698,12.912-6.698,22.787c0,9.688,2.02,17.07,6.059,22.148
		c4.04,5.08,9.864,7.618,17.472,7.618c4.156,0,7.984-0.399,11.481-1.202v-16.231H361.8V138.646z"/>
</g>
<g>
	<path d="M489.163,199.316h-61.52V95.695h61.52v22.468h-33.523v16.302h31.043v22.468h-31.043v19.563h33.523V199.316z"/>
</g>
<g>
	<path d="M605.966,199.316h-36.715l-37.848-73.002h-0.637c0.896,11.482,1.348,20.248,1.348,26.296v46.706h-24.808V95.695h36.571
		l37.706,72.011h0.425c-0.66-10.442-0.991-18.828-0.991-25.161v-46.85h24.948V199.316z"/>
</g>
<g>
	<path d="M628.364,199.316V95.695H656.5v103.621H628.364z"/>
</g>
<g>
	<path d="M725.041,117.171c-6.663,0-11.862,2.729-15.593,8.186c-3.733,5.458-5.601,12.983-5.601,22.574
		c0,19.938,7.584,29.909,22.752,29.909c4.581,0,9.024-0.637,13.325-1.913c4.299-1.275,8.621-2.811,12.97-4.607v23.672
		c-8.647,3.828-18.428,5.741-29.344,5.741c-15.64,0-27.63-4.534-35.969-13.606c-8.34-9.072-12.51-22.185-12.51-39.338
		c0-10.725,2.02-20.152,6.06-28.278c4.041-8.127,9.852-14.376,17.436-18.747c7.585-4.37,16.503-6.557,26.756-6.557
		c11.199,0,21.901,2.434,32.106,7.301l-8.575,22.042c-3.828-1.795-7.653-3.307-11.481-4.536
		C733.544,117.785,729.434,117.171,725.041,117.171z"/>
</g>
<g>
	<rect x="81.944" y="186.911" fill="#3CA8B5" width="219.647" height="12.154"/>
</g>
</svg>
