<?xml version="1.0" encoding="utf-8"?>
<!-- Generator: Adobe Illustrator 17.0.0, SVG Export Plug-In . SVG Version: 6.00 Build 0)  -->
<!DOCTYPE svg PUBLIC "-//W3C//DTD SVG 1.1//EN" "http://www.w3.org/Graphics/SVG/1.1/DTD/svg11.dtd">
<svg version="1.1" id="Layer_1" xmlns="http://www.w3.org/2000/svg" xmlns:xlink="http://www.w3.org/1999/xlink" x="0px" y="0px"
	 width="333.456px" height="104.844px" viewBox="0 0 333.456 104.844" enable-background="new 0 0 333.456 104.844"
	 xml:space="preserve">
<g>
	<g>
		<g>
			<g>
				<path d="M0.206,31.941V0.862h8.397v24.298H20.57v6.781H0.206z"/>
			</g>
		</g>
		<g>
			<g>
				<path d="M43.997,31.941H25.545V0.862h18.452v6.739H33.942v4.889h9.311v6.739h-9.311v5.867h10.055V31.941z"/>
			</g>
		</g>
		<g>
			<g>
				<path d="M69.507,31.941l-1.53-5.825H57.879l-1.573,5.825H47.08L57.22,0.735h11.202L78.69,31.941H69.507z M66.233,19.229
					l-1.339-5.102c-0.312-1.133-0.691-2.6-1.137-4.4c-0.447-1.799-0.741-3.089-0.882-3.869c-0.127,0.723-0.379,1.913-0.755,3.572
					c-0.375,1.658-1.208,4.925-2.498,9.8H66.233z"/>
			</g>
		</g>
		<g>
			<g>
				<path d="M108.43,15.743c0,5.188-1.428,9.184-4.283,11.99c-2.856,2.806-6.87,4.209-12.043,4.209H82.049V0.862h10.757
					c4.988,0,8.839,1.276,11.553,3.827C107.072,7.24,108.43,10.925,108.43,15.743z M99.714,16.04c0-2.848-0.564-4.959-1.691-6.334
					c-1.126-1.374-2.838-2.062-5.133-2.062h-2.444v17.411h1.871c2.55,0,4.421-0.741,5.611-2.221
					C99.119,21.352,99.714,19.087,99.714,16.04z"/>
			</g>
		</g>
	</g>
	<g>
		<g>
			<path d="M138.152,21.938h22.077v27.57c-5.995,2.053-12.584,3.079-19.768,3.079c-7.884,0-13.978-2.286-18.281-6.857
				c-4.303-4.572-6.455-11.091-6.455-19.559c0-8.257,2.355-14.683,7.067-19.278S134.104,0,142.595,0c3.219,0,6.257,0.304,9.114,0.91
				c2.857,0.606,5.348,1.376,7.47,2.309l-4.373,10.846c-3.686-1.819-7.732-2.729-12.141-2.729c-4.036,0-7.155,1.312-9.359,3.936
				c-2.205,2.624-3.307,6.374-3.307,11.249c0,4.782,0.997,8.426,2.991,10.934c1.994,2.508,4.869,3.761,8.625,3.761
				c2.052,0,3.941-0.198,5.668-0.595v-8.012h-9.132V21.938z"/>
		</g>
	</g>
	<g>
		<g>
			<path d="M201.025,51.888h-30.369V0.735h30.369v11.091h-16.549v8.047H199.8v11.091h-15.324v9.657h16.549V51.888z"/>
		</g>
	</g>
	<g>
		<g>
			<path d="M258.685,51.888h-18.124L221.878,15.85h-0.314c0.442,5.668,0.665,9.995,0.665,12.981v23.057h-12.246V0.735h18.054
				l18.613,35.548h0.21c-0.326-5.155-0.489-9.295-0.489-12.421V0.735h12.316V51.888z"/>
		</g>
	</g>
	<g>
		<g>
			<path d="M269.742,51.888V0.735h13.89v51.153H269.742z"/>
		</g>
	</g>
	<g>
		<g>
			<path d="M317.466,11.336c-3.289,0-5.855,1.347-7.697,4.041c-1.843,2.694-2.765,6.409-2.765,11.144
				c0,9.843,3.744,14.765,11.232,14.765c2.262,0,4.455-0.315,6.578-0.944c2.122-0.63,4.256-1.388,6.402-2.274v11.686
				c-4.268,1.889-9.097,2.834-14.485,2.834c-7.721,0-13.64-2.239-17.756-6.718c-4.117-4.478-6.176-10.951-6.176-19.418
				c0-5.295,0.997-9.948,2.991-13.96c1.995-4.012,4.863-7.097,8.607-9.254C308.142,1.08,312.545,0,317.606,0
				c5.528,0,10.811,1.202,15.85,3.604l-4.233,10.881c-1.89-0.886-3.778-1.632-5.668-2.239
				C321.665,11.64,319.635,11.336,317.466,11.336z"/>
		</g>
	</g>
	<g>
		<g>
			<rect x="0" y="45.764" fill="#3CA8B5" width="108.43" height="6"/>
		</g>
	</g>
	<g>
		<g>
			<path fill="#ED2224" d="M144.677,63.977c-1.229,0.512-2.33,1.287-3.226,2.271c-0.924,1.004-1.658,2.239-2.199,3.704
				c-0.541,1.466-0.813,3.155-0.813,5.067c0,2.486,0.486,4.629,1.457,6.428c0.973,1.801,2.59,3.243,4.852,4.327l-7.743,14.292h4.35
				l7.074-13.67h2.486v13.67h3.776V63.212h-6.118C147.237,63.205,145.912,63.465,144.677,63.977z M150.916,83.287h-2.008
				c-0.818,0.002-1.629-0.152-2.39-0.453c-0.765-0.302-1.449-0.789-2.055-1.459c-0.606-0.669-1.092-1.522-1.459-2.556
				c-0.365-1.036-0.549-2.304-0.549-3.801c0-1.529,0.167-2.843,0.501-3.943c0.336-1.101,0.782-2,1.34-2.701
				c0.557-0.702,1.193-1.211,1.912-1.53c0.717-0.319,1.457-0.478,2.222-0.478h2.486V83.287z"/>
		</g>
		<g>
			<path fill="#010101" d="M239.822,96.791c-0.732,0.207-1.449,0.31-2.151,0.31c-1.849,0-3.218-0.828-4.111-2.485
				c-0.891-1.658-1.338-3.937-1.338-6.835c-0.002-1.225,0.094-2.448,0.287-3.657c0.191-1.195,0.463-2.253,0.813-3.178
				c0.352-0.924,0.797-1.673,1.338-2.246s1.147-0.86,1.816-0.86c0.574,0,1.14,0.176,1.696,0.526c0.558,0.35,1.059,0.782,1.507,1.291
				l1.96-3.298c-0.697-0.492-1.462-0.878-2.271-1.147c-0.843-0.287-1.792-0.43-2.843-0.43c-1.175-0.001-2.323,0.348-3.298,1.004
				c-1.019,0.669-1.897,1.61-2.629,2.82c-0.732,1.21-1.314,2.677-1.745,4.397c-0.429,1.721-0.644,3.633-0.644,5.736
				c0,3.824,0.757,6.755,2.27,8.795c1.514,2.04,3.499,3.059,5.952,3.059c1.147,0,2.174-0.167,3.084-0.501
				c0.856-0.31,1.68-0.703,2.461-1.172l-0.382-2.725C241.014,96.429,240.423,96.629,239.822,96.791z"/>
		</g>
		<g>
			<polygon fill="#010101" points="226.438,75.401 222.375,75.401 217.165,86.107 216.735,86.585 216.735,75.401 212.911,75.401 
				212.911,100.017 216.735,100.017 216.735,87.35 217.165,87.876 223.044,100.017 227.298,100.017 220.415,86.49 			"/>
		</g>
		<g>
			<polygon fill="#010101" points="169.175,85.104 163.535,85.104 163.535,75.401 159.711,75.401 159.711,100.017 163.535,100.017 
				163.535,88.258 169.175,88.258 169.175,100.017 172.951,100.017 172.951,75.401 169.175,75.401 			"/>
		</g>
		<g>
			<path fill="#010101" d="M202.539,74.779c-1.338,0-2.486,0.39-3.442,1.172c-0.956,0.779-1.744,1.815-2.365,3.107
				c-0.623,1.291-1.084,2.771-1.388,4.444c-0.302,1.673-0.453,3.418-0.453,5.235c0,3.761,0.749,6.676,2.247,8.747
				c1.497,2.071,3.489,3.107,5.975,3.107c1.21,0,2.304-0.167,3.275-0.501c0.971-0.336,1.855-0.725,2.652-1.172l-0.43-2.725
				c-0.598,0.242-1.213,0.442-1.839,0.598c-0.782,0.207-1.539,0.31-2.271,0.31c-1.944,0-3.369-0.749-4.277-2.247
				c-0.91-1.497-1.363-3.585-1.363-6.262h10.277V86.49c0-3.856-0.606-6.772-1.816-8.747
				C206.108,75.766,204.514,74.779,202.539,74.779z M205.215,85.438h-6.309c0.063-1.084,0.176-2.086,0.335-3.011
				c0.16-0.924,0.382-1.728,0.669-2.415c0.287-0.685,0.637-1.218,1.052-1.601c0.385-0.371,0.899-0.576,1.434-0.573
				c0.765,0,1.386,0.518,1.864,1.554c0.478,1.035,0.78,2.492,0.908,4.373c-0.001,0.207,0.007,0.415,0.023,0.621
				c0.017,0.191,0.025,0.367,0.025,0.526V85.438z"/>
		</g>
		<g>
			<path fill="#010101" d="M190.589,75.401h-10.707v2.103c0,1.497-0.025,3.075-0.071,4.732c-0.049,1.658-0.183,3.33-0.407,5.019
				c-0.224,1.688-0.549,3.361-0.979,5.019c-0.413,1.611-1.015,3.167-1.793,4.637h-1.482v7.934h3.394v-4.828h10.563v4.828h3.394
				V96.91h-1.912V75.401z M186.813,96.91h-6.835c0.637-1.052,1.162-2.294,1.577-3.728c0.429-1.5,0.764-3.024,1.004-4.566
				c0.257-1.631,0.433-3.273,0.526-4.922c0.096-1.673,0.143-3.26,0.143-4.757V78.46h3.585V96.91z"/>
		</g>
		<g>
			<polygon fill="#010101" points="268.262,66.845 266.063,66.845 256.073,82.331 256.073,66.845 253.779,66.845 253.779,100.065 
				256.073,100.065 256.073,82.522 266.541,100.065 269.122,100.065 258.415,82.14 			"/>
		</g>
		<g>
			<path fill="#010101" d="M283.557,95.619V82.475c0-2.39-0.526-4.151-1.577-5.283c-1.052-1.13-2.566-1.696-4.541-1.696
				c-1.371,0-2.543,0.248-3.514,0.742c-0.971,0.493-1.696,1.059-2.174,1.696l0.621,2.055c0.561-0.817,1.317-1.482,2.199-1.935
				c0.893-0.463,1.849-0.694,2.868-0.694c1.338,0,2.342,0.423,3.011,1.268c0.669,0.843,1.004,2.205,1.004,4.086v3.011h-2.629
				c-2.613,0-4.604,0.661-5.975,1.984c-1.371,1.321-2.055,3.273-2.055,5.855c0,2.199,0.51,3.912,1.529,5.139
				c1.019,1.226,2.342,1.84,3.967,1.84c1.21,0,2.247-0.335,3.107-1.004c0.86-0.669,1.577-1.577,2.151-2.725
				c0.063,0.86,0.151,1.539,0.264,2.032c0.11,0.493,0.214,0.899,0.31,1.218h1.96c-0.159-0.446-0.287-1.092-0.382-1.935
				C283.605,97.285,283.557,96.447,283.557,95.619z M281.454,94.09c-0.446,1.306-1.059,2.421-1.84,3.346
				c-0.782,0.924-1.73,1.386-2.845,1.386c-1.18,0-2.119-0.478-2.82-1.434c-0.702-0.956-1.052-2.294-1.052-4.015
				c0-2.135,0.495-3.688,1.482-4.66c0.988-0.973,2.486-1.459,4.493-1.459h2.581V94.09z"/>
		</g>
		<g>
			<path fill="#010101" d="M299.235,97.388c-0.415,0.35-0.916,0.654-1.506,0.908c-0.589,0.254-1.281,0.382-2.079,0.382
				c-1.912,0-3.306-0.924-4.183-2.772c-0.876-1.849-1.314-4.462-1.314-7.839c0-3.441,0.445-6.093,1.338-7.959
				c0.893-1.864,2.277-2.796,4.158-2.796c1.052,0,1.952,0.271,2.701,0.813c0.74,0.533,1.393,1.178,1.935,1.912l0.621-2.294
				c-0.541-0.637-1.235-1.17-2.078-1.602c-0.845-0.429-1.904-0.645-3.179-0.645c-2.486,0-4.382,1.099-5.688,3.298
				c-1.306,2.199-1.96,5.29-1.96,9.273c0,3.952,0.661,7.019,1.983,9.202c1.323,2.182,3.196,3.273,5.617,3.273
				c0.924,0,1.736-0.136,2.438-0.406c0.702-0.271,1.274-0.583,1.721-0.933c0.529-0.371,0.997-0.822,1.386-1.339l-0.717-1.769
				C300.111,96.608,299.713,97.038,299.235,97.388z"/>
		</g>
		<g>
			<path fill="#010101" d="M314.866,97.388c-0.415,0.35-0.916,0.654-1.506,0.908c-0.589,0.254-1.281,0.382-2.078,0.382
				c-1.912,0-3.306-0.924-4.182-2.772c-0.877-1.849-1.315-4.462-1.315-7.839c0-3.441,0.446-6.093,1.338-7.959
				c0.893-1.864,2.277-2.796,4.159-2.796c1.052,0,1.952,0.271,2.701,0.813c0.74,0.533,1.393,1.178,1.935,1.912l0.621-2.294
				c-0.541-0.637-1.235-1.17-2.078-1.602c-0.845-0.429-1.904-0.645-3.179-0.645c-2.486,0-4.382,1.099-5.688,3.298
				c-1.306,2.199-1.96,5.29-1.96,9.273c0,3.952,0.661,7.019,1.984,9.202c1.321,2.182,3.195,3.273,5.616,3.273
				c0.924,0,1.736-0.136,2.438-0.406c0.702-0.271,1.274-0.583,1.721-0.933c0.53-0.371,0.997-0.822,1.386-1.339l-0.717-1.769
				C315.741,96.608,315.344,97.038,314.866,97.388z"/>
		</g>
		<g>
			<path fill="#010101" d="M332.073,98.13c-0.095-0.845-0.143-1.682-0.143-2.51V82.475c0-2.39-0.526-4.151-1.577-5.283
				c-1.052-1.13-2.566-1.696-4.541-1.696c-1.371,0-2.543,0.248-3.514,0.742c-0.971,0.493-1.696,1.059-2.174,1.696l0.621,2.055
				c0.561-0.817,1.317-1.482,2.199-1.935c0.893-0.463,1.849-0.694,2.868-0.694c1.338,0,2.342,0.423,3.011,1.268
				c0.669,0.843,1.004,2.205,1.004,4.086v3.011h-2.629c-2.613,0-4.604,0.661-5.975,1.984c-1.371,1.321-2.055,3.273-2.055,5.855
				c0,2.199,0.51,3.912,1.53,5.139c1.019,1.226,2.342,1.84,3.967,1.84c1.211,0,2.247-0.335,3.107-1.004
				c0.86-0.669,1.577-1.577,2.151-2.725c0.04,0.683,0.127,1.362,0.262,2.032c0.111,0.493,0.216,0.899,0.311,1.218h1.96
				C332.297,99.619,332.169,98.973,332.073,98.13z M329.827,94.09c-0.446,1.306-1.059,2.421-1.839,3.346
				c-0.782,0.924-1.73,1.386-2.845,1.386c-1.18,0-2.118-0.478-2.82-1.434c-0.702-0.956-1.052-2.294-1.052-4.015
				c0-2.135,0.495-3.688,1.482-4.66c0.988-0.973,2.486-1.459,4.493-1.459h2.581V94.09z"/>
		</g>
	</g>
	<g>
		<g>
			<line x1="124.147" y1="81.896" x2="124.147" y2="95.203"/>
			<rect x="122.898" y="81.896" width="2.5" height="13.308"/>
		</g>
		<g>
			<line x1="130.801" y1="88.55" x2="117.493" y2="88.55"/>
			<rect x="117.493" y="87.3" width="13.308" height="2.5"/>
		</g>
	</g>
</g>
</svg>
