<svg width="22" height="22" viewBox="0 0 22 22" fill="none" xmlns="http://www.w3.org/2000/svg">
<path fill-rule="evenodd" clip-rule="evenodd" d="M2 11C2 9.8181 2.23279 8.64778 2.68508 7.55585C3.13738 6.46392 3.80031 5.47177 4.63604 4.63604C5.47177 3.80031 6.46392 3.13738 7.55585 2.68508C8.64778 2.23279 9.8181 2 11 2C12.1819 2 13.3522 2.23279 14.4442 2.68508C15.5361 3.13738 16.5282 3.80031 17.364 4.63604C18.1997 5.47177 18.8626 6.46392 19.3149 7.55585C19.7672 8.64778 20 9.8181 20 11C20 13.3869 19.0518 15.6761 17.364 17.364C15.6761 19.0518 13.3869 20 11 20C8.61305 20 6.32387 19.0518 4.63604 17.364C2.94821 15.6761 2 13.3869 2 11ZM11 0C4.925 0 0 4.925 0 11C0 17.075 4.925 22 11 22C17.075 22 22 17.075 22 11C22 4.925 17.075 0 11 0ZM12 6C12 5.73478 11.8946 5.48043 11.7071 5.29289C11.5196 5.10536 11.2652 5 11 5C10.7348 5 10.4804 5.10536 10.2929 5.29289C10.1054 5.48043 10 5.73478 10 6V10H6C5.73478 10 5.48043 10.1054 5.29289 10.2929C5.10536 10.4804 5 10.7348 5 11C5 11.2652 5.10536 11.5196 5.29289 11.7071C5.48043 11.8946 5.73478 12 6 12H10V16C10 16.2652 10.1054 16.5196 10.2929 16.7071C10.4804 16.8946 10.7348 17 11 17C11.2652 17 11.5196 16.8946 11.7071 16.7071C11.8946 16.5196 12 16.2652 12 16V12H16C16.2652 12 16.5196 11.8946 16.7071 11.7071C16.8946 11.5196 17 11.2652 17 11C17 10.7348 16.8946 10.4804 16.7071 10.2929C16.5196 10.1054 16.2652 10 16 10H12V6Z" fill="#4898A8"/>
</svg>
