<svg width="18" height="20" viewBox="0 0 18 20" fill="none" xmlns="http://www.w3.org/2000/svg">
<path fill-rule="evenodd" clip-rule="evenodd" d="M5.207 2.18C5.091 2.354 5 2.648 5 3V12C5 12.2652 4.89464 12.5196 4.70711 12.7071C4.51957 12.8946 4.26522 13 4 13C3.73478 13 3.48043 12.8946 3.29289 12.7071C3.10536 12.5196 3 12.2652 3 12V9C3 8.648 2.91 8.354 2.793 8.18C2.697 8.035 2.613 8 2.5 8C2.388 8 2.303 8.035 2.207 8.18C2.091 8.354 2 8.648 2 9V13C2 14.033 2.7 15.14 4.055 16.043C5.387 16.932 7.194 17.5 9 17.5C12.668 17.5 15 15.251 15 13V9C15 8.648 14.91 8.354 14.793 8.18C14.697 8.035 14.613 8 14.5 8C14.388 8 14.303 8.035 14.207 8.18C14.091 8.354 14 8.648 14 9C14 9.26522 13.8946 9.51957 13.7071 9.70711C13.5196 9.89464 13.2652 10 13 10C12.7348 10 12.4804 9.89464 12.2929 9.70711C12.1054 9.51957 12 9.26522 12 9V8C12 7.648 11.91 7.354 11.793 7.18C11.697 7.035 11.613 7 11.5 7C11.388 7 11.303 7.035 11.207 7.18C11.091 7.354 11 7.648 11 8V8.5C11 8.76522 10.8946 9.01957 10.7071 9.20711C10.5196 9.39464 10.2652 9.5 10 9.5C9.73478 9.5 9.48043 9.39464 9.29289 9.20711C9.10536 9.01957 9 8.76522 9 8.5V7.5C9 7.148 8.91 6.854 8.793 6.68C8.697 6.535 8.613 6.5 8.5 6.5C8.388 6.5 8.303 6.535 8.207 6.68C8.091 6.854 8 7.148 8 7.5V8C8 8.26522 7.89464 8.51957 7.70711 8.70711C7.51957 8.89464 7.26522 9 7 9C6.73478 9 6.48043 8.89464 6.29289 8.70711C6.10536 8.51957 6 8.26522 6 8V3C6 2.648 5.91 2.354 5.793 2.18C5.697 2.035 5.613 2 5.5 2C5.388 2 5.303 2.035 5.207 2.18ZM8 4.552V3C8 2.352 7.84 1.646 7.457 1.07C7.053 0.465 6.387 0 5.5 0C4.612 0 3.947 0.465 3.543 1.07C3.159 1.646 3 2.352 3 3V6.052C2.83563 6.01708 2.66803 5.99965 2.5 6C1.612 6 0.947 6.465 0.543 7.07C0.159 7.646 0 8.352 0 9V13C0 14.967 1.3 16.61 2.945 17.707C4.612 18.818 6.806 19.5 9 19.5C13.332 19.5 17 16.749 17 13V9C17 8.352 16.84 7.646 16.457 7.07C16.053 6.465 15.387 6 14.5 6C14.169 5.99782 13.8415 6.06742 13.54 6.204C13.5136 6.15859 13.4859 6.1139 13.457 6.07C13.053 5.465 12.387 5 11.5 5C11.031 5 10.624 5.13 10.286 5.34C10.0702 5.07524 9.79762 4.86231 9.48851 4.71693C9.1794 4.57154 8.84159 4.49741 8.5 4.5C8.325 4.5 8.158 4.518 8 4.552Z" fill="#7E889A"/>
<path d="M15 3H10C9.44772 3 9 2.55228 9 2C9 1.44772 9.44772 1 10 1H15C16.6569 1 18 2.34315 18 4V5C18 5.55228 17.5523 6 17 6C16.4477 6 16 5.55228 16 5V4C16 3.44772 15.5523 3 15 3Z" fill="#7E889A"/>
</svg>
