<svg width="17" height="17" viewBox="0 0 17 17" fill="none" xmlns="http://www.w3.org/2000/svg">
<path fill-rule="evenodd" clip-rule="evenodd" d="M4 2C3.46957 2 2.96086 2.21071 2.58579 2.58579C2.21071 2.96086 2 3.46957 2 4C2 4.53043 2.21071 5.03914 2.58579 5.41421C2.96086 5.78929 3.46957 6 4 6C4.53043 6 5.03914 5.78929 5.41421 5.41421C5.78929 5.03914 6 4.53043 6 4C6 3.46957 5.78929 2.96086 5.41421 2.58579C5.03914 2.21071 4.53043 2 4 2ZM0 4C0 2.93913 0.421427 1.92172 1.17157 1.17157C1.92172 0.421427 2.93913 0 4 0C5.06087 0 6.07828 0.421427 6.82843 1.17157C7.57857 1.92172 8 2.93913 8 4C8 5.06087 7.57857 6.07828 6.82843 6.82843C6.07828 7.57857 5.06087 8 4 8C2.93913 8 1.92172 7.57857 1.17157 6.82843C0.421427 6.07828 0 5.06087 0 4ZM13 11C12.4696 11 11.9609 11.2107 11.5858 11.5858C11.2107 11.9609 11 12.4696 11 13C11 13.5304 11.2107 14.0391 11.5858 14.4142C11.9609 14.7893 12.4696 15 13 15C13.5304 15 14.0391 14.7893 14.4142 14.4142C14.7893 14.0391 15 13.5304 15 13C15 12.4696 14.7893 11.9609 14.4142 11.5858C14.0391 11.2107 13.5304 11 13 11ZM9 13C9 11.9391 9.42143 10.9217 10.1716 10.1716C10.9217 9.42143 11.9391 9 13 9C14.0609 9 15.0783 9.42143 15.8284 10.1716C16.5786 10.9217 17 11.9391 17 13C17 14.0609 16.5786 15.0783 15.8284 15.8284C15.0783 16.5786 14.0609 17 13 17C11.9391 17 10.9217 16.5786 10.1716 15.8284C9.42143 15.0783 9 14.0609 9 13ZM15.707 2.707C15.8892 2.5184 15.99 2.2658 15.9877 2.0036C15.9854 1.7414 15.8802 1.49059 15.6948 1.30518C15.5094 1.11977 15.2586 1.0146 14.9964 1.01233C14.7342 1.01005 14.4816 1.11084 14.293 1.293L1.293 14.293C1.19749 14.3852 1.12131 14.4956 1.0689 14.6176C1.01649 14.7396 0.988903 14.8708 0.98775 15.0036C0.986596 15.1364 1.0119 15.2681 1.06218 15.391C1.11246 15.5138 1.18671 15.6255 1.2806 15.7194C1.3745 15.8133 1.48615 15.8875 1.60905 15.9378C1.73194 15.9881 1.86362 16.0134 1.9964 16.0123C2.12918 16.0111 2.2604 15.9835 2.3824 15.9311C2.50441 15.8787 2.61475 15.8025 2.707 15.707L15.707 2.707Z" fill="#7E889A"/>
</svg>
