<svg width="20" height="20" viewBox="0 0 20 20" fill="none" xmlns="http://www.w3.org/2000/svg">
<path fill-rule="evenodd" clip-rule="evenodd" d="M16 2H4C3.44772 2 3 2.44772 3 3V4C3 4.55228 3.44772 5 4 5H16C16.5523 5 17 4.55228 17 4V3C17 2.44772 16.5523 2 16 2ZM4 0C2.34315 0 1 1.34315 1 3V4C1 5.65685 2.34315 7 4 7H16C17.6569 7 19 5.65685 19 4V3C19 1.34315 17.6569 0 16 0H4Z" fill="#7E889A"/>
<path fill-rule="evenodd" clip-rule="evenodd" d="M16 15H4C3.44772 15 3 15.4477 3 16V17C3 17.5523 3.44772 18 4 18H16C16.5523 18 17 17.5523 17 17V16C17 15.4477 16.5523 15 16 15ZM4 13C2.34315 13 1 14.3431 1 16V17C1 18.6569 2.34315 20 4 20H16C17.6569 20 19 18.6569 19 17V16C19 14.3431 17.6569 13 16 13H4Z" fill="#7E889A"/>
<path d="M0 10C0 9.44772 0.447715 9 1 9H19C19.5523 9 20 9.44772 20 10C20 10.5523 19.5523 11 19 11H1C0.447716 11 0 10.5523 0 10Z" fill="#7E889A"/>
</svg>
