<svg width="21" height="21" viewBox="0 0 21 21" fill="none" xmlns="http://www.w3.org/2000/svg">
<path d="M21 3C21 4.65685 19.6569 6 18 6C16.3431 6 15 4.65685 15 3C15 1.34315 16.3431 0 18 0C19.6569 0 21 1.34315 21 3Z" fill="#7E889A"/>
<path d="M13.416 1H3C2.20435 1 1.44129 1.31607 0.87868 1.87868C0.316071 2.44129 0 3.20435 0 4V18C0 18.7956 0.316071 19.5587 0.87868 20.1213C1.44129 20.6839 2.20435 21 3 21H17C17.7956 21 18.5587 20.6839 19.1213 20.1213C19.6839 19.5587 20 18.7956 20 18V7.58396C19.3875 7.85155 18.7111 8 18 8V18C18 18.2652 17.8946 18.5196 17.7071 18.7071C17.5196 18.8946 17.2652 19 17 19H3C2.73478 19 2.48043 18.8946 2.29289 18.7071C2.10536 18.5196 2 18.2652 2 18V4C2 3.73478 2.10536 3.48043 2.29289 3.29289C2.48043 3.10536 2.73478 3 3 3H13C13 2.2889 13.1484 1.61246 13.416 1Z" fill="#7E889A"/>
<path d="M4.29289 9.29289C4.10536 9.48043 4 9.73478 4 10C4 10.2652 4.10536 10.5196 4.29289 10.7071C4.48043 10.8946 4.73478 11 5 11H15C15.2652 11 15.5196 10.8946 15.7071 10.7071C15.8946 10.5196 16 10.2652 16 10C16 9.73478 15.8946 9.48043 15.7071 9.29289C15.5196 9.10536 15.2652 9 15 9H5C4.73478 9 4.48043 9.10536 4.29289 9.29289Z" fill="#7E889A"/>
<path d="M4 6C4 5.73478 4.10536 5.48043 4.29289 5.29289C4.48043 5.10536 4.73478 5 5 5H12C12.2652 5 12.5196 5.10536 12.7071 5.29289C12.8946 5.48043 13 5.73478 13 6C13 6.26522 12.8946 6.51957 12.7071 6.70711C12.5196 6.89464 12.2652 7 12 7H5C4.73478 7 4.48043 6.89464 4.29289 6.70711C4.10536 6.51957 4 6.26522 4 6Z" fill="#7E889A"/>
<path d="M7 15.5C7 14.6716 7.67157 14 8.5 14H11.5C12.3284 14 13 14.6716 13 15.5C13 16.3284 12.3284 17 11.5 17H8.5C7.67157 17 7 16.3284 7 15.5Z" fill="#7E889A"/>
</svg>
