<svg width="20" height="20" viewBox="0 0 20 20" fill="none" xmlns="http://www.w3.org/2000/svg">
<path fill-rule="evenodd" clip-rule="evenodd" d="M0 3C0 2.20435 0.316071 1.44129 0.87868 0.87868C1.44129 0.316071 2.20435 0 3 0H17C17.7956 0 18.5587 0.316071 19.1213 0.87868C19.6839 1.44129 20 2.20435 20 3V17C20 17.7956 19.6839 18.5587 19.1213 19.1213C18.5587 19.6839 17.7956 20 17 20H3C2.20435 20 1.44129 19.6839 0.87868 19.1213C0.316071 18.5587 0 17.7956 0 17V3ZM3 2C2.73478 2 2.48043 2.10536 2.29289 2.29289C2.10536 2.48043 2 2.73478 2 3V8H18V3C18 2.73478 17.8946 2.48043 17.7071 2.29289C17.5196 2.10536 17.2652 2 17 2H3ZM2 10V17C2 17.2652 2.10536 17.5196 2.29289 17.7071C2.48043 17.8946 2.73478 18 3 18H17C17.2652 18 17.5196 17.8946 17.7071 17.7071C17.8946 17.5196 18 17.2652 18 17V10H2ZM12 11C12.2652 11.0001 12.5195 11.1055 12.707 11.293L16.707 15.293C16.8892 15.4816 16.99 15.7342 16.9877 15.9964C16.9854 16.2586 16.8802 16.5094 16.6948 16.6948C16.5094 16.8802 16.2586 16.9854 15.9964 16.9877C15.7342 16.99 15.4816 16.8892 15.293 16.707L12 13.414L9.707 15.707L8.707 16.707C8.5184 16.8892 8.2658 16.99 8.0036 16.9877C7.7414 16.9854 7.49059 16.8802 7.30518 16.6948C7.11977 16.5094 7.0146 16.2586 7.01233 15.9964C7.01005 15.7342 7.11084 15.4816 7.293 15.293L7.586 15L7 14.414L4.707 16.707C4.5184 16.8892 4.2658 16.99 4.0036 16.9877C3.7414 16.9854 3.49059 16.8802 3.30518 16.6948C3.11977 16.5094 3.0146 16.2586 3.01233 15.9964C3.01005 15.7342 3.11084 15.4816 3.293 15.293L6.293 12.293C6.48053 12.1055 6.73484 12.0002 7 12.0002C7.26516 12.0002 7.51947 12.1055 7.707 12.293L9 13.586L11.293 11.293C11.4805 11.1055 11.7348 11.0001 12 11ZM9 5C9 4.73478 9.10536 4.48043 9.29289 4.29289C9.48043 4.10536 9.73478 4 10 4H15C15.2652 4 15.5196 4.10536 15.7071 4.29289C15.8946 4.48043 16 4.73478 16 5C16 5.26522 15.8946 5.51957 15.7071 5.70711C15.5196 5.89464 15.2652 6 15 6H10C9.73478 6 9.48043 5.89464 9.29289 5.70711C9.10536 5.51957 9 5.26522 9 5ZM5 6.75C5.46413 6.75 5.90925 6.56563 6.23744 6.23744C6.56563 5.90925 6.75 5.46413 6.75 5C6.75 4.53587 6.56563 4.09075 6.23744 3.76256C5.90925 3.43437 5.46413 3.25 5 3.25C4.53587 3.25 4.09075 3.43437 3.76256 3.76256C3.43437 4.09075 3.25 4.53587 3.25 5C3.25 5.46413 3.43437 5.90925 3.76256 6.23744C4.09075 6.56563 4.53587 6.75 5 6.75Z" fill="#7E889A"/>
</svg>
