<svg width="18" height="18" viewBox="0 0 18 18" fill="none" xmlns="http://www.w3.org/2000/svg">
<path fill-rule="evenodd" clip-rule="evenodd" d="M0 3C0 2.20435 0.316071 1.44129 0.87868 0.87868C1.44129 0.316071 2.20435 0 3 0H15C15.7956 0 16.5587 0.316071 17.1213 0.87868C17.6839 1.44129 18 2.20435 18 3V15C18 15.7956 17.6839 16.5587 17.1213 17.1213C16.5587 17.6839 15.7956 18 15 18H3C2.20435 18 1.44129 17.6839 0.87868 17.1213C0.316071 16.5587 0 15.7956 0 15V3ZM16 3V11.586L12.707 8.293C12.5195 8.10553 12.2652 8.00021 12 8.00021C11.7348 8.00021 11.4805 8.10553 11.293 8.293L10 9.586L6.207 5.793C6.01947 5.60553 5.76516 5.50021 5.5 5.50021C5.23484 5.50021 4.98053 5.60553 4.793 5.793L2 8.586V3C2 2.73478 2.10536 2.48043 2.29289 2.29289C2.48043 2.10536 2.73478 2 3 2H15C15.2652 2 15.5196 2.10536 15.7071 2.29289C15.8946 2.48043 16 2.73478 16 3ZM2 15V11.414L5.5 7.914L9.293 11.707C9.48053 11.8945 9.73484 11.9998 10 11.9998C10.2652 11.9998 10.5195 11.8945 10.707 11.707L12 10.414L16 14.414V15C16 15.2652 15.8946 15.5196 15.7071 15.7071C15.5196 15.8946 15.2652 16 15 16H3C2.73478 16 2.48043 15.8946 2.29289 15.7071C2.10536 15.5196 2 15.2652 2 15ZM11.5 7C11.8978 7 12.2794 6.84196 12.5607 6.56066C12.842 6.27936 13 5.89782 13 5.5C13 5.10218 12.842 4.72064 12.5607 4.43934C12.2794 4.15804 11.8978 4 11.5 4C11.1022 4 10.7206 4.15804 10.4393 4.43934C10.158 4.72064 10 5.10218 10 5.5C10 5.89782 10.158 6.27936 10.4393 6.56066C10.7206 6.84196 11.1022 7 11.5 7Z" fill="#7E889A"/>
</svg>
