<svg width="16" height="18" viewBox="0 0 16 18" fill="none" xmlns="http://www.w3.org/2000/svg">
<path fill-rule="evenodd" clip-rule="evenodd" d="M8 9.99979C8.26522 9.99979 8.51957 9.89443 8.70711 9.70689C8.89464 9.51936 9 9.265 9 8.99979V6.41379L10.293 7.70679C10.3852 7.8023 10.4956 7.87848 10.6176 7.93089C10.7396 7.9833 10.8708 8.01088 11.0036 8.01204C11.1364 8.01319 11.2681 7.98789 11.391 7.93761C11.5139 7.88733 11.6255 7.81307 11.7194 7.71918C11.8133 7.62529 11.8875 7.51364 11.9378 7.39074C11.9881 7.26784 12.0134 7.13616 12.0123 7.00339C12.0111 6.87061 11.9835 6.73939 11.9311 6.61738C11.8787 6.49538 11.8025 6.38503 11.707 6.29279L8.707 3.29279C8.51947 3.10532 8.26516 3 8 3C7.73484 3 7.48053 3.10532 7.293 3.29279L4.293 6.29279C4.11084 6.48139 4.01005 6.73399 4.01233 6.99619C4.0146 7.25838 4.11977 7.5092 4.30518 7.6946C4.49059 7.88001 4.7414 7.98518 5.0036 7.98746C5.2658 7.98974 5.5184 7.88894 5.707 7.70679L7 6.41379V8.99979C7 9.265 7.10536 9.51936 7.29289 9.70689C7.48043 9.89443 7.73478 9.99979 8 9.99979ZM0 1C0 0.734784 0.105357 0.48043 0.292893 0.292893C0.48043 0.105357 0.734784 0 1 0H15C15.2652 0 15.5196 0.105357 15.7071 0.292893C15.8946 0.48043 16 0.734784 16 1C16 1.26522 15.8946 1.51957 15.7071 1.70711C15.5196 1.89464 15.2652 2 15 2H1C0.734784 2 0.48043 1.89464 0.292893 1.70711C0.105357 1.51957 0 1.26522 0 1Z" fill="#7E889A"/>
<path fill-rule="evenodd" clip-rule="evenodd" d="M8 8C8.26522 8 8.51957 8.10536 8.70711 8.29289C8.89464 8.48043 9 8.73457 9 8.99979V11.586L10.293 10.293C10.3852 10.1975 10.4956 10.1213 10.6176 10.0689C10.7396 10.0165 10.8708 9.9889 11.0036 9.98775C11.1364 9.9866 11.2681 10.0119 11.391 10.0622C11.5139 10.1125 11.6255 10.1867 11.7194 10.2806C11.8133 10.3745 11.8875 10.4861 11.9378 10.609C11.9881 10.7319 12.0134 10.8636 12.0123 10.9964C12.0111 11.1292 11.9835 11.2604 11.9311 11.3824C11.8787 11.5044 11.8025 11.6148 11.707 11.707L8.707 14.707C8.51947 14.8945 8.26516 14.9998 8 14.9998C7.73484 14.9998 7.48053 14.8945 7.293 14.707L4.293 11.707C4.11084 11.5184 4.01005 11.2658 4.01233 11.0036C4.0146 10.7414 4.11977 10.4906 4.30518 10.3052C4.49059 10.1198 4.7414 10.0146 5.0036 10.0123C5.2658 10.01 5.5184 10.1108 5.707 10.293L7 11.586V8.99979C7 8.73457 7.10536 8.48043 7.29289 8.29289C7.48043 8.10536 7.73478 8 8 8ZM0 16.9998C0 17.265 0.105357 17.5194 0.292893 17.7069C0.48043 17.8944 0.734784 17.9998 1 17.9998H15C15.2652 17.9998 15.5196 17.8944 15.7071 17.7069C15.8946 17.5194 16 17.265 16 16.9998C16 16.7346 15.8946 16.4802 15.7071 16.2927C15.5196 16.1051 15.2652 15.9998 15 15.9998H1C0.734784 15.9998 0.48043 16.1051 0.292893 16.2927C0.105357 16.4802 0 16.7346 0 16.9998Z" fill="#7E889A"/>
</svg>
