<svg width="24" height="24" viewBox="0 0 24 24" fill="none" xmlns="http://www.w3.org/2000/svg">
<path d="M8.5 12C8.5 13.933 10.067 15.5 12 15.5C13.933 15.5 15.5 13.933 15.5 12C15.5 10.067 13.933 8.5 12 8.5C10.067 8.5 8.5 10.067 8.5 12Z" stroke="#7E889A" stroke-width="2" stroke-linecap="round" stroke-linejoin="round"/>
<path d="M13.6483 1.5L14.1877 3.72171L16.3068 4.59946L18.2592 3.40994L20.5901 5.74088L19.4006 7.69326L20.2784 9.81232L22.5 10.3517V13.6482L20.2784 14.1876L19.4006 16.3067L20.5902 18.2591L18.2592 20.59L16.3068 19.4005L14.1877 20.2782L13.6483 22.5H10.3519L9.81246 20.2782L7.69339 19.4005L5.74085 20.5901L3.40997 18.2592L4.59959 16.3067L3.72185 14.1876L1.5 13.6481V10.3518L3.72185 9.81232L4.59959 7.69326L3.41 5.74076L5.74089 3.40986L7.69339 4.59946L9.81246 3.72171L10.3519 1.5H13.6483Z" stroke="#7E889A" stroke-width="2" stroke-linecap="round" stroke-linejoin="round"/>
</svg>
