<svg width="24" height="20" viewBox="0 0 24 20" fill="none" xmlns="http://www.w3.org/2000/svg">
<path fill-rule="evenodd" clip-rule="evenodd" d="M6.01096 9.575L7.29296 8.293C7.38521 8.19749 7.49555 8.12131 7.61755 8.0689C7.73956 8.01649 7.87078 7.9889 8.00356 7.98775C8.13634 7.9866 8.26802 8.0119 8.39091 8.06218C8.51381 8.11246 8.62546 8.18671 8.71935 8.28061C8.81325 8.3745 8.8875 8.48615 8.93778 8.60905C8.98806 8.73194 9.01336 8.86362 9.01221 8.9964C9.01106 9.12918 8.98347 9.2604 8.93106 9.3824C8.87865 9.50441 8.80247 9.61475 8.70696 9.707L5.70696 12.707C5.51943 12.8945 5.26512 12.9998 4.99996 12.9998C4.73479 12.9998 4.48049 12.8945 4.29296 12.707L1.29296 9.707C1.19745 9.61475 1.12127 9.50441 1.06886 9.3824C1.01645 9.2604 0.988862 9.12918 0.987709 8.9964C0.986555 8.86362 1.01186 8.73194 1.06214 8.60905C1.11242 8.48615 1.18667 8.3745 1.28056 8.28061C1.37446 8.18671 1.48611 8.11246 1.60901 8.06218C1.7319 8.0119 1.86358 7.9866 1.99636 7.98775C2.12914 7.9889 2.26036 8.01649 2.38236 8.0689C2.50437 8.12131 2.61471 8.19749 2.70696 8.293L4.00796 9.593C4.22096 4.26 8.61296 0 14 0C19.523 0 24 4.477 24 10C24 15.523 19.523 20 14 20C12.5086 20.0012 11.0358 19.6682 9.69003 19.0255C8.34422 18.3827 7.15951 17.4467 6.22296 16.286C6.06396 16.0792 5.99207 15.8184 6.02264 15.5594C6.0532 15.3003 6.18379 15.0634 6.38655 14.8993C6.58931 14.7351 6.84819 14.6567 7.10795 14.6808C7.36771 14.7048 7.60778 14.8294 7.77696 15.028C8.9515 16.4817 10.5979 17.4783 12.4305 17.8448C14.2631 18.2114 16.1661 17.9248 17.8095 17.0347C19.4528 16.1447 20.7327 14.7074 21.427 12.9723C22.1213 11.2372 22.1863 9.31377 21.6106 7.53578C21.0348 5.75779 19.8548 4.23746 18.2752 3.23863C16.6957 2.2398 14.8163 1.8255 12.9631 2.06763C11.11 2.30975 9.40014 3.19302 8.13023 4.56416C6.86032 5.93531 6.11052 7.70778 6.01096 9.574V9.575ZM14 3C14.2652 3 14.5195 3.10536 14.7071 3.29289C14.8946 3.48043 15 3.73478 15 4V9.586L17.707 12.293C17.8891 12.4816 17.9899 12.7342 17.9876 12.9964C17.9854 13.2586 17.8802 13.5094 17.6948 13.6948C17.5094 13.8802 17.2586 13.9854 16.9964 13.9877C16.7342 13.99 16.4816 13.8892 16.293 13.707L13.293 10.707C13.1054 10.5195 13 10.2652 13 10V4C13 3.73478 13.1053 3.48043 13.2929 3.29289C13.4804 3.10536 13.7347 3 14 3Z" fill="#7E889A"/>
</svg>
