<svg width="22" height="22" viewBox="0 0 22 22" fill="none" xmlns="http://www.w3.org/2000/svg">
<path fill-rule="evenodd" clip-rule="evenodd" d="M2 11C2 9.8181 2.23279 8.64778 2.68508 7.55585C3.13738 6.46392 3.80031 5.47177 4.63604 4.63604C5.47177 3.80031 6.46392 3.13738 7.55585 2.68508C8.64778 2.23279 9.8181 2 11 2C12.1819 2 13.3522 2.23279 14.4442 2.68508C15.5361 3.13738 16.5282 3.80031 17.364 4.63604C18.1997 5.47177 18.8626 6.46392 19.3149 7.55585C19.7672 8.64778 20 9.8181 20 11C20 13.3869 19.0518 15.6761 17.364 17.364C15.6761 19.0518 13.3869 20 11 20C8.61305 20 6.32387 19.0518 4.63604 17.364C2.94821 15.6761 2 13.3869 2 11ZM11 0C4.925 0 0 4.925 0 11C0 17.075 4.925 22 11 22C17.075 22 22 17.075 22 11C22 4.925 17.075 0 11 0Z" fill="#7E889A"/>
<path fill-rule="evenodd" clip-rule="evenodd" d="M9.5 8.26792V13.7322L14.0639 11L9.5 8.26792ZM8.40291 6.16624C8.65634 6.04447 8.93497 5.98957 9.21084 6.00163C9.48652 6.01368 9.76028 6.09268 10.0032 6.23815L15.7303 9.66662C15.9518 9.79922 16.1452 9.98596 16.2837 10.2185C16.4229 10.452 16.5 10.7208 16.5 11C16.5 11.2793 16.4229 11.5481 16.2837 11.7816C16.1452 12.0141 15.9518 12.2008 15.7304 12.3334L10.0035 15.7618C9.76055 15.9072 9.48649 15.9864 9.2108 15.9984C8.93501 16.0104 8.65645 15.9555 8.40308 15.8338C8.14939 15.7119 7.92292 15.5236 7.75854 15.2771C7.59336 15.0295 7.49998 14.7359 7.5 14.4285M8.40291 6.16624C8.14925 6.28819 7.92262 6.47669 7.75831 6.72315L8.40291 6.16624ZM7.75831 6.72315C7.59324 6.97074 7.49995 7.26428 7.5 7.57158L7.75831 6.72315ZM7.5 7.57158V14.4285V7.57158Z" fill="#7E889A"/>
<path fill-rule="evenodd" clip-rule="evenodd" d="M9.21084 6.00163C8.93497 5.98957 8.65634 6.04447 8.40291 6.16624C8.14925 6.28819 7.92262 6.47669 7.75831 6.72315C7.59324 6.97074 7.49995 7.26428 7.5 7.57158V14.4285C7.49998 14.7359 7.59336 15.0295 7.75854 15.2771C7.92292 15.5236 8.14939 15.7119 8.40308 15.8338C8.65645 15.9555 8.93501 16.0104 9.2108 15.9984C9.48649 15.9864 9.76055 15.9072 10.0035 15.7618L15.7304 12.3334C15.9518 12.2008 16.1452 12.0141 16.2837 11.7816C16.4229 11.5481 16.5 11.2793 16.5 11C16.5 10.7208 16.4229 10.452 16.2837 10.2185C16.1452 9.98596 15.9518 9.79922 15.7303 9.66662L10.0032 6.23815C9.76028 6.09268 9.48652 6.01368 9.21084 6.00163ZM9.5 8.26792V13.7322L14.0639 11L9.5 8.26792Z" fill="#7E889A"/>
</svg>
